<?xml version="1.0" encoding="utf-8"?>
<!-- Generator: Adobe Illustrator 17.0.0, SVG Export Plug-In . SVG Version: 6.00 Build 0)  -->
<!DOCTYPE svg PUBLIC "-//W3C//DTD SVG 1.1//EN" "http://www.w3.org/Graphics/SVG/1.1/DTD/svg11.dtd">
<svg xmlns="http://www.w3.org/2000/svg" xmlns:xlink="http://www.w3.org/1999/xlink" version="1.1" id="Layer_1" x="0px" y="0px" width="50px" height="50px" viewBox="0 0 50 50" enable-background="new 0 0 50 50" xml:space="preserve" fill="#fcc400">
<g fill="#fcc400">
	<path fill="none" stroke="#fcc400" stroke-width="2" stroke-linecap="round" stroke-miterlimit="10" d="M18,5   c-5.007,0-7,4.989-7,8.501c0,0.898-2-0.422-2,3.499c0,0,4,1,11,1s11-1,11-1c0-3.958-2-2.601-2-3.499C29,9.986,26.966,5,22,5 M22,11   V4.225C22,3.547,21.469,3,20.857,3h-1.715C18.531,3,18,3.547,18,4.225V11"/>
</g>
<g fill="#fcc400">
	<path fill="none" stroke="#fcc400" stroke-width="2" stroke-linecap="round" stroke-miterlimit="10" d="M31,16h2c6.262,0,10-1,10-1   c0-3.598-1.818-2.36-1.818-3.177C41.182,8.628,39.284,4,35,4 M31,4c-2.061,0-3.607,1.158-4.637,2.714 M35,10V3.225   C35,2.547,34.469,2,33.857,2h-1.715C31.531,2,31,2.547,31,3.225V10"/>
</g>

<path fill="none" stroke="#fcc400" stroke-width="2" stroke-linecap="round" stroke-miterlimit="10" d="M11.457,17.442  c0.136,0.814,0.248,1.259,0.468,2.105c-0.345,0.21-0.913,0.878-0.771,2.065c0.266,2.211,1.17,2.771,1.744,2.818  c0.22,2.062,1.58,4.504,2.312,4.888c0,1.473,0.055,2.598-0.091,4.21C13.367,38.239,1.64,36.916,1.094,46H39  c-0.545-9.084-12.315-7.761-14.067-12.472c-0.146-1.612-0.09-2.737-0.09-4.21c0.73-0.384,2.038-2.826,2.259-4.888  c0.574-0.047,1.478-0.607,1.744-2.818c0.143-1.187-0.425-1.855-0.771-2.065c0.201-0.605,0.37-1.105,0.57-2.12"/>
<path fill="none" stroke="#fcc400" stroke-width="2" stroke-linecap="round" stroke-miterlimit="10" d="M37,41h11.908  c-0.457-7.649-10.278-6.947-11.755-10.913c-0.122-1.359-0.075-2.306-0.075-3.547c0.616-0.323,1.717-2.378,1.903-4.115  c0.481-0.041,1.245-0.511,1.47-2.373c0.119-1-0.36-1.562-0.652-1.74c0.242-0.73,0.466-1.226,0.637-2.56"/>
</svg>
