<?xml version="1.0" encoding="utf-8"?>
<!-- Generator: Adobe Illustrator 17.0.0, SVG Export Plug-In . SVG Version: 6.00 Build 0)  -->
<!DOCTYPE svg PUBLIC "-//W3C//DTD SVG 1.1//EN" "http://www.w3.org/Graphics/SVG/1.1/DTD/svg11.dtd">
<svg xmlns="http://www.w3.org/2000/svg" xmlns:xlink="http://www.w3.org/1999/xlink" version="1.1" id="Layer_1" x="0px" y="0px" width="50px" height="50px" viewBox="0 0 50 50" enable-background="new 0 0 50 50" xml:space="preserve" fill="#fcc400">

<path fill="none" stroke="#fcc400" stroke-width="2" stroke-linecap="round" stroke-linejoin="round" stroke-miterlimit="10" d="  M12.077,3.846L19,2c0,0,0.875,4,6,4s6-4,6-4l6.923,1.846c0,0-2.095,5.073,0.077,11.154l-0.077,9.371L38,48H12V15  C14.769,10.385,12.077,3.846,12.077,3.846z"/>
<path fill="none" stroke="#fcc400" stroke-width="2" stroke-linecap="round" stroke-linejoin="round" stroke-miterlimit="10" d="  M38,15l4.388,6.848l6.581-4.067c0,0-3.926-6.431-6.319-10.417c-1.495-2.492-4.727-3.518-4.727-3.518"/>
<path fill="none" stroke="#fcc400" stroke-width="2" stroke-linecap="round" stroke-linejoin="round" stroke-miterlimit="10" d="  M12,15l-4.388,6.848l-6.581-4.067c0,0,3.926-6.431,6.319-10.417c1.495-2.492,4.727-3.518,4.727-3.518"/>
<path fill="none" stroke="#fcc400" stroke-width="2" stroke-linecap="round" stroke-linejoin="round" stroke-miterlimit="10" d="  M19,2c0,0,2.12-1,6-1s6,1,6,1"/>
</svg>
