<?xml version="1.0" encoding="utf-8"?>
<!-- Generator: Adobe Illustrator 18.1.1, SVG Export Plug-In . SVG Version: 6.00 Build 0)  -->
<svg xmlns="http://www.w3.org/2000/svg" xmlns:xlink="http://www.w3.org/1999/xlink" version="1.1" id="Layer_1" x="0px" y="0px" viewBox="0 0 50 50" enable-background="new 0 0 50 50" xml:space="preserve" fill="#fcc400">
<path fill="none" stroke="#fcc400" stroke-width="2" stroke-linejoin="round" stroke-miterlimit="10" d="M11,9H5c-0.6,0-1,0.4-1,1  v34c0,0.6,0.4,1,1,1h40c0.6,0,1-0.4,1-1V10c0-0.6-0.4-1-1-1h-6"/>
<line fill="none" stroke="#fcc400" stroke-width="2" stroke-linejoin="round" stroke-miterlimit="10" x1="35" y1="9" x2="15" y2="9"/>
<path fill="none" stroke="#fcc400" stroke-width="2" stroke-linejoin="round" stroke-miterlimit="10" d="M36,5c-0.6,0-1,0.4-1,1v6  c0,0.6,0.4,1,1,1h2c0.6,0,1-0.4,1-1V6c0-0.6-0.4-1-1-1H36z"/>
<path fill="none" stroke="#fcc400" stroke-width="2" stroke-linejoin="round" stroke-miterlimit="10" d="M12,5c-0.6,0-1,0.4-1,1v6  c0,0.6,0.4,1,1,1h2c0.6,0,1-0.4,1-1V6c0-0.6-0.4-1-1-1H12z"/>
<line fill="none" stroke="#fcc400" stroke-width="2" stroke-linejoin="round" stroke-miterlimit="10" x1="4" y1="19" x2="46" y2="19"/>
<path fill="none" stroke="#fcc400" stroke-width="2" stroke-linecap="square" stroke-miterlimit="10" d="M39,39h-8c-0.6,0-1-0.4-1-1  v-8c0-0.6,0.4-1,1-1h8c0.6,0,1,0.4,1,1v8C40,38.6,39.6,39,39,39z"/>
</svg>
