<?xml version="1.0" encoding="utf-8"?>
<!-- Generator: Adobe Illustrator 17.0.0, SVG Export Plug-In . SVG Version: 6.00 Build 0)  -->
<!DOCTYPE svg PUBLIC "-//W3C//DTD SVG 1.1//EN" "http://www.w3.org/Graphics/SVG/1.1/DTD/svg11.dtd">
<svg xmlns="http://www.w3.org/2000/svg" xmlns:xlink="http://www.w3.org/1999/xlink" version="1.1" id="Layer_1" x="0px" y="0px" width="50px" height="50px" viewBox="0 0 50 50" enable-background="new 0 0 50 50" xml:space="preserve" fill="#ffc400">
<path fill="none" stroke="#ffc400" stroke-width="2" stroke-linecap="round" stroke-miterlimit="10" d="M49,28.5  c0-3.038-2.462-5.5-5.5-5.5S38,25.462,38,28.5c0,2.5-1,6.5-5,6.5H17c-4,0-5-4-5-6.5c0-3.038-2.462-5.5-5.5-5.5S1,25.462,1,28.5  c0,2.881,2.216,5.24,5.036,5.477C6.013,34.182,6,34.389,6,34.6c0,1.043,0,4.656,0,5.7c0,3.148,2.552,5.7,5.7,5.7  c1.467,0,25.133,0,26.6,0c3.148,0,5.7-2.552,5.7-5.7c0-1.044,0-4.656,0-5.7c0-0.211-0.013-0.418-0.036-0.624  C46.784,33.74,49,31.381,49,28.5z"/>
<polyline fill="none" stroke="#ffc400" stroke-width="2" stroke-linecap="round" stroke-linejoin="round" stroke-miterlimit="10" points="  40,45.742 40,49 34,49 34,46 "/>
<polyline fill="none" stroke="#ffc400" stroke-width="2" stroke-linecap="round" stroke-linejoin="round" stroke-miterlimit="10" points="  10,45.742 10,49 16,49 16,46 "/>
<path fill="none" stroke="#ffc400" stroke-width="2" stroke-linecap="round" stroke-miterlimit="10" d="M44,23.024v-1.507  C44,15.794,40.153,12,34.5,12c-2.924,0-16.076,0-19,0C9.847,12,6,15.794,6,21.517V23"/>
</svg>
