<?xml version="1.0" encoding="utf-8"?>
<!-- Generator: Adobe Illustrator 18.1.1, SVG Export Plug-In . SVG Version: 6.00 Build 0)  -->
<svg xmlns="http://www.w3.org/2000/svg" xmlns:xlink="http://www.w3.org/1999/xlink" version="1.1" id="Layer_1" x="0px" y="0px" viewBox="0 0 50 50" enable-background="new 0 0 50 50" xml:space="preserve" fill="#fcc400">
<polygon fill="none" stroke="#fcc400" stroke-width="2" stroke-linecap="round" stroke-miterlimit="10" points="1,16 25,2 49,16   49,44 1,44 "/>
<path fill="none" stroke="#fcc400" stroke-width="2" stroke-miterlimit="10" d="M33.9,27.3C34,26.8,34,26.4,34,26s0-0.8-0.1-1.3  l2.5-1.8c0.3-0.2,0.3-0.5,0.2-0.8l-2.5-4.3c-0.2-0.3-0.5-0.4-0.8-0.2l-2.9,1.3c-0.7-0.5-1.4-0.9-2.2-1.3l-0.3-3.1  c0-0.3-0.3-0.5-0.6-0.5h-4.9c-0.3,0-0.6,0.2-0.6,0.5l-0.3,3.1c-0.8,0.3-1.5,0.7-2.2,1.3l-2.9-1.3c-0.3-0.1-0.6,0-0.8,0.2l-2.5,4.3  c-0.2,0.3-0.1,0.6,0.2,0.8l2.5,1.8C16,25.2,16,25.6,16,26s0,0.8,0.1,1.3l-2.5,1.8c-0.3,0.2-0.3,0.5-0.2,0.8l2.5,4.3  c0.2,0.3,0.5,0.4,0.8,0.2l2.9-1.3c0.7,0.5,1.4,0.9,2.2,1.3l0.3,3.1c0,0.3,0.3,0.5,0.6,0.5h4.9c0.3,0,0.6-0.2,0.6-0.5l0.3-3.1  c0.8-0.3,1.5-0.7,2.2-1.3l2.9,1.3c0.3,0.1,0.6,0,0.8-0.2l2.5-4.3c0.2-0.3,0.1-0.6-0.2-0.8L33.9,27.3z M25,31c-2.8,0-5-2.2-5-5  c0-2.8,2.2-5,5-5c2.8,0,5,2.2,5,5C30,28.8,27.8,31,25,31z"/>
</svg>
