<svg display="none" version="1.1" xmlns="http://www.w3.org/2000/svg" xmlns:xlink="http://www.w3.org/1999/xlink">
<defs>
<!-- Commom Icons -->
<symbol id="icon-pencil" viewBox="0 0 32 32">
	<title>icon-pencil</title>
	<path d="M2.331 26.041l-1.058 3.607c-0.089 0.306-0.005 0.636 0.219 0.862 0.166 0.165 0.389 0.255 0.615 0.255 0.082 0 0.166-0.012 0.246-0.036l3.607-1.058-3.63-3.63z"></path>
	<path d="M22.145 11.874l-0.015 0.014-2.219-2.222 0.012-0.015-2.971-2.969-13.689 13.568 2.492 2.492 3.193 0.261 0.177 3.11 2.623 2.624 13.69-13.57z"></path>
	<path d="M26.666 13.82l-8.486-8.486 1.942-1.82 8.485 8.486z"></path>
	<path d="M29.614 10.521l-8.132-8.133 1.248-1.262c1.11-1.11 2.921-1.102 4.043 0.022l4.068 4.066c1.122 1.124 1.132 2.934 0.022 4.044l-1.249 1.262z"></path>
</symbol>

<symbol id="icon-checkmark" viewBox="0 0 24 24">
	<title>icon-checkmark</title>
	 <path style="text-indent:0;text-align:start;line-height:normal;text-transform:none;block-progression:tb;-inkscape-font-specification:Bitstream Vera Sans" d="M 19.28125 5.28125 L 9 15.5625 L 4.71875 11.28125 L 3.28125 12.71875 L 8.28125 17.71875 L 9 18.40625 L 9.71875 17.71875 L 20.71875 6.71875 L 19.28125 5.28125 z" color="#000" overflow="visible" enable-background="accumulate" font-family="Bitstream Vera Sans"/>
</symbol>

<symbol id="icon-previous" viewBox="0 0 24 24">
	<title>icon-previous</title>
	<path style="text-indent:0;text-align:start;line-height:normal;text-transform:none;block-progression:tb;-inkscape-font-specification:Bitstream Vera Sans" d="M 14.78125 2.28125 L 5.78125 11.28125 L 5.09375 12 L 5.78125 12.71875 L 14.78125 21.71875 L 16.21875 20.28125 L 7.9375 12 L 16.21875 3.71875 L 14.78125 2.28125 z" color="#000" overflow="visible" enable-background="accumulate" font-family="Bitstream Vera Sans"/>
</symbol>

<symbol id="icon-up" viewBox="0 0 50 50">
	<title>icon-up</title>
	<path d="M 25 12.75 L 2.75 35 L 4.84375 37.09375 L 25 16.9375 L 45.15625 37.09375 L 47.25 35 L 25 12.75 z"/>
</symbol>

<symbol id="icon-down" viewBox="0 0 50 50">
	<title>icon-down</title>
	<path d="M 4.84375 12.90625 L 2.75 15 L 25 37.25 L 47.25 15 L 45.15625 12.90625 L 25 33.0625 L 4.84375 12.90625 z"/>
</symbol>

</defs>
</svg>
