<svg display="none" version="1.1" xmlns="http://www.w3.org/2000/svg" xmlns:xlink="http://www.w3.org/1999/xlink">
<defs>
<!-- Commom Icons -->
<symbol id="icon-pencil" viewBox="0 0 32 32">
	<title>icon-pencil</title>
	<path fill="#444444" d="M2.331 26.041l-1.058 3.607c-0.089 0.306-0.005 0.636 0.219 0.862 0.166 0.165 0.389 0.255 0.615 0.255 0.082 0 0.166-0.012 0.246-0.036l3.607-1.058-3.63-3.63z"></path>
	<path fill="#444444" d="M22.145 11.874l-0.015 0.014-2.219-2.222 0.012-0.015-2.971-2.969-13.689 13.568 2.492 2.492 3.193 0.261 0.177 3.11 2.623 2.624 13.69-13.57z"></path>
	<path fill="#444444" d="M26.666 13.82l-8.486-8.486 1.942-1.82 8.485 8.486z"></path>
	<path fill="#444444" d="M29.614 10.521l-8.132-8.133 1.248-1.262c1.11-1.11 2.921-1.102 4.043 0.022l4.068 4.066c1.122 1.124 1.132 2.934 0.022 4.044l-1.249 1.262z"></path>
</symbol>



</defs>
</svg>
