<svg xmlns="http://www.w3.org/2000/svg" viewBox="0 0 50 50" enable-background="new 0 0 50 50">
    <path style="text-indent:0;text-align:start;line-height:normal;text-transform:none;block-progression:tb;-inkscape-font-specification:Bitstream Vera Sans" d="M 9.34375 0 C 8.6758834 0.061049216 7.9722058 0.31003152 7.3125 0.78125 C 6.5483543 1.3270683 4.797173 2.7175913 3.1875 4.25 C 2.3826635 5.0162043 1.6187937 5.8166761 1.03125 6.59375 C 0.44370632 7.3708239 -0.05183598 8.0776164 0 9.0625 C 0.0470962 9.9573277 0.11908116 12.685879 2.09375 16.90625 C 4.0684188 21.126621 7.9387174 26.938717 15.5 34.5 C 23.061283 42.061283 28.873379 45.931581 33.09375 47.90625 C 37.314121 49.880919 40.042672 49.952904 40.9375 50 L 40.96875 50 L 41 50 C 41.957456 50 42.665046 49.495439 43.4375 48.90625 C 44.209954 48.317061 44.984511 47.578902 45.75 46.78125 C 47.280977 45.185946 48.666386 43.460809 49.21875 42.6875 L 49.25 42.625 C 50.455648 40.880331 50.131956 38.897826 48.875 38 C 47.936401 37.329572 39.910509 32.037141 38.65625 31.28125 C 38.64715 31.27515 38.63413 31.28715 38.625 31.28125 C 37.496583 30.548462 36.107059 30.825127 34.8125 31.53125 C 33.79777 32.084739 31.017001 33.670893 30.28125 34.09375 C 29.750615 33.750335 27.435595 32.248095 22.59375 27.40625 L 22.59375 27.375 C 17.652271 22.521762 16.191223 20.264271 15.875 19.75 C 16.275535 19.053136 17.900137 16.259439 18.46875 15.21875 C 18.47175 15.21335 18.46585 15.1928 18.46875 15.1875 C 19.197245 13.958403 19.435998 12.552058 18.78125 11.40625 L 18.75 11.40625 L 18.75 11.375 C 18.391993 10.778322 16.901803 8.515249 15.375 6.1875 C 14.611598 5.0236255 13.861337 3.856073 13.25 2.9375 C 12.645762 2.0295933 12.216305 1.4149848 12 1.125 C 11.9975 1.12159 12.0025 1.097063 12 1.09375 L 11.96875 1.09375 C 11.51278 0.47907135 10.824151 0.07966044 10 0 C 9.7899284 -0.020305015 9.5663722 -0.020349739 9.34375 0 z M 33.875 0 A 1.0001 1.0001 0 0 0 33.28125 0.28125 L 26.28125 7.28125 L 25.59375 8 L 26.28125 8.71875 L 33.28125 15.71875 A 1.016466 1.016466 0 1 0 34.71875 14.28125 L 29.4375 9 L 38 9 C 41.854545 9 45 12.145455 45 16 L 45 26 L 47 26 L 47 16 C 47 11.054545 42.945455 7 38 7 L 29.4375 7 L 34.71875 1.71875 A 1.0001 1.0001 0 0 0 33.875 0 z M 9.5 2.03125 C 9.5980809 2.0271857 9.6975716 2.020305 9.78125 2.03125 C 10.115964 2.07503 10.329219 2.2171564 10.375 2.28125 L 10.40625 2.28125 L 10.40625 2.3125 C 10.49225 2.4271667 10.986337 3.118573 11.59375 4.03125 C 12.201163 4.943927 12.957152 6.1201245 13.71875 7.28125 C 15.241947 9.603501 16.789257 12.002928 17.03125 12.40625 C 17.171731 12.652092 17.208766 13.42289 16.75 14.1875 L 16.71875 14.1875 L 16.71875 14.21875 C 16.145183 15.270289 13.84375 19.3125 13.84375 19.3125 L 13.5625 19.8125 L 13.84375 20.28125 C 13.84375 20.28125 15.534386 23.260335 21.1875 28.8125 C 26.73464 34.35964 29.6875 36.15625 29.6875 36.15625 L 30.1875 36.46875 L 30.6875 36.15625 C 30.6875 36.15625 34.729711 33.854817 35.78125 33.28125 C 36.676221 32.793084 37.464616 32.893077 37.53125 32.9375 L 37.5625 32.9375 L 37.59375 32.96875 C 38.38358 33.442648 47.260671 39.297801 47.71875 39.625 C 47.846937 39.71656 48.337167 40.490466 47.59375 41.53125 C 47.146114 42.157941 45.756523 43.870304 44.3125 45.375 C 43.590489 46.127348 42.855671 46.826689 42.21875 47.3125 C 41.581829 47.798311 40.992544 48 41 48 C 39.978875 47.94837 37.842712 47.92096 33.9375 46.09375 C 30.031487 44.266166 24.459754 40.600501 17.15625 33.34375 L 16.90625 33.09375 C 9.4675326 25.655033 5.7565812 20.017129 3.90625 16.0625 C 2.0559188 12.107871 2.0529038 9.9426723 2 8.9375 C 2.001836 8.9723836 2.1469187 8.4135511 2.625 7.78125 C 3.1030813 7.1489489 3.8048365 6.4087957 4.5625 5.6875 C 6.077827 4.2449087 7.8328957 2.8604317 8.46875 2.40625 C 8.8590441 2.1274685 9.2057572 2.043443 9.5 2.03125 z" color="#000" overflow="visible" enable-background="accumulate" font-family="Bitstream Vera Sans"/>
</svg>