<svg display="none" width="0" height="0" version="1.1" xmlns="http://www.w3.org/2000/svg" xmlns:xlink="http://www.w3.org/1999/xlink">
<defs>
<symbol id="icon-Callback" viewBox="0 0 1024 1024">
	<title>Callback</title>
	<path class="path1" d="M191.36 0c-13.678 1.25-28.089 6.349-41.6 16-15.65 11.178-51.514 39.656-84.48 71.040-16.483 15.692-32.127 32.086-44.16 48s-22.182 30.39-21.12 50.56c0.965 18.326 2.439 74.207 42.88 160.64s119.705 205.465 274.56 360.32c154.855 154.855 273.887 234.119 360.32 274.56s142.314 41.915 160.64 42.88h1.28c19.609 0 34.1-10.333 49.92-22.4s31.683-27.184 47.36-43.52c31.354-32.672 59.728-68.003 71.040-83.84l0.64-1.28c24.692-35.731 18.062-76.333-7.68-94.72-19.223-13.73-183.593-122.119-209.28-137.6-0.186-0.125-0.453 0.121-0.64 0-23.11-15.007-51.567-9.341-78.080 5.12-20.782 11.335-77.732 43.82-92.8 52.48-10.867-7.033-58.279-37.799-157.44-136.96v-0.64c-101.201-99.394-131.124-145.628-137.6-156.16 8.203-14.272 41.475-71.487 53.12-92.8 0.061-0.111-0.059-0.531 0-0.64 14.92-25.172 19.809-53.974 6.4-77.44h-0.64v-0.64c-7.332-12.22-37.851-58.568-69.12-106.24-15.634-23.836-31-47.748-43.52-66.56-12.375-18.594-21.17-31.181-25.6-37.12-0.051-0.070 0.051-0.572 0-0.64h-0.64c-9.338-12.589-23.441-20.769-40.32-22.4-4.302-0.416-8.881-0.417-13.44 0zM693.76 0c-5.154 0.573-9.659 2.981-12.919 6.547l-142.601 142.573-14.080 14.72 14.080 14.72 143.36 143.36c3.767 3.768 8.972 6.098 14.721 6.098 11.497 0 20.817-9.32 20.817-20.817 0-5.749-2.33-10.954-6.098-14.721l-108.16-108.16h175.36c78.941 0 143.36 64.419 143.36 143.36v204.8h40.96v-204.8c0-101.283-83.037-184.32-184.32-184.32h-175.36l108.16-108.16c4.018-3.75 6.523-9.077 6.523-14.989 0-11.312-9.17-20.482-20.482-20.482-1.173 0-2.323 0.099-3.442 0.288zM194.56 41.6c2.009-0.083 4.046-0.224 5.76 0 6.855 0.897 11.222 3.807 12.16 5.12h0.64v0.64c1.761 2.348 11.88 16.508 24.32 35.2s27.922 42.78 43.52 66.56c31.195 47.56 62.884 96.7 67.84 104.96 2.877 5.035 3.636 20.821-5.76 36.48h-0.64v0.64c-11.747 21.536-58.88 104.32-58.88 104.32l-5.76 10.24 5.76 9.6c0 0 34.624 61.012 150.4 174.72 113.605 113.605 174.080 150.4 174.080 150.4l10.24 6.4 10.24-6.4c0 0 82.784-47.133 104.32-58.88 18.329-9.998 34.475-7.95 35.84-7.040h0.64l0.64 0.64c16.176 9.705 197.979 129.619 207.36 136.32 2.625 1.875 12.665 17.725-2.56 39.040-9.168 12.835-37.626 47.904-67.2 78.72-14.787 15.408-29.836 29.731-42.88 39.68s-25.113 14.080-24.96 14.080c-20.913-1.057-64.661-1.619-144.64-39.040-79.995-37.429-194.104-112.502-343.68-261.12l-5.12-5.12c-152.345-152.345-228.345-267.809-266.24-348.8s-37.957-125.334-39.040-145.92c0.038 0.714 3.009-10.73 12.8-23.68s24.163-28.108 39.68-42.88c31.034-29.544 66.978-57.898 80-67.2 7.993-5.709 15.094-7.43 21.12-7.68z"></path>
</symbol>
<symbol id="icon-interstate_truck" viewBox="0 0 1024 1024">
	<title>interstate_truck</title>
	<path class="path1" d="M191.36 0c-13.678 1.25-28.089 6.349-41.6 16-15.65 11.178-51.514 39.656-84.48 71.040-16.483 15.692-32.127 32.086-44.16 48s-22.182 30.39-21.12 50.56c0.965 18.326 2.439 74.207 42.88 160.64s119.705 205.465 274.56 360.32c154.855 154.855 273.887 234.119 360.32 274.56s142.314 41.915 160.64 42.88h1.28c19.609 0 34.1-10.333 49.92-22.4s31.683-27.184 47.36-43.52c31.354-32.672 59.728-68.003 71.040-83.84l0.64-1.28c24.692-35.731 18.062-76.333-7.68-94.72-19.223-13.73-183.593-122.119-209.28-137.6-0.186-0.125-0.453 0.121-0.64 0-23.11-15.007-51.567-9.341-78.080 5.12-20.782 11.335-77.732 43.82-92.8 52.48-10.867-7.033-58.279-37.799-157.44-136.96v-0.64c-101.201-99.394-131.124-145.628-137.6-156.16 8.203-14.272 41.475-71.487 53.12-92.8 0.061-0.111-0.059-0.531 0-0.64 14.92-25.172 19.809-53.974 6.4-77.44h-0.64v-0.64c-7.332-12.22-37.851-58.568-69.12-106.24-15.634-23.836-31-47.748-43.52-66.56-12.375-18.594-21.17-31.181-25.6-37.12-0.051-0.070 0.051-0.572 0-0.64h-0.64c-9.338-12.589-23.441-20.769-40.32-22.4-4.302-0.416-8.881-0.417-13.44 0zM693.76 0c-5.154 0.573-9.659 2.981-12.919 6.547l-142.601 142.573-14.080 14.72 14.080 14.72 143.36 143.36c3.767 3.768 8.972 6.098 14.721 6.098 11.497 0 20.817-9.32 20.817-20.817 0-5.749-2.33-10.954-6.098-14.721l-108.16-108.16h175.36c78.941 0 143.36 64.419 143.36 143.36v204.8h40.96v-204.8c0-101.283-83.037-184.32-184.32-184.32h-175.36l108.16-108.16c4.018-3.75 6.523-9.077 6.523-14.989 0-11.312-9.17-20.482-20.482-20.482-1.173 0-2.323 0.099-3.442 0.288zM194.56 41.6c2.009-0.083 4.046-0.224 5.76 0 6.855 0.897 11.222 3.807 12.16 5.12h0.64v0.64c1.761 2.348 11.88 16.508 24.32 35.2s27.922 42.78 43.52 66.56c31.195 47.56 62.884 96.7 67.84 104.96 2.877 5.035 3.636 20.821-5.76 36.48h-0.64v0.64c-11.747 21.536-58.88 104.32-58.88 104.32l-5.76 10.24 5.76 9.6c0 0 34.624 61.012 150.4 174.72 113.605 113.605 174.080 150.4 174.080 150.4l10.24 6.4 10.24-6.4c0 0 82.784-47.133 104.32-58.88 18.329-9.998 34.475-7.95 35.84-7.040h0.64l0.64 0.64c16.176 9.705 197.979 129.619 207.36 136.32 2.625 1.875 12.665 17.725-2.56 39.040-9.168 12.835-37.626 47.904-67.2 78.72-14.787 15.408-29.836 29.731-42.88 39.68s-25.113 14.080-24.96 14.080c-20.913-1.057-64.661-1.619-144.64-39.040-79.995-37.429-194.104-112.502-343.68-261.12l-5.12-5.12c-152.345-152.345-228.345-267.809-266.24-348.8s-37.957-125.334-39.040-145.92c0.038 0.714 3.009-10.73 12.8-23.68s24.163-28.108 39.68-42.88c31.034-29.544 66.978-57.898 80-67.2 7.993-5.709 15.094-7.43 21.12-7.68z"></path>
</symbol>
<symbol id="icon-t_shirt" viewBox="0 0 1024 1024">
	<title>t_shirt</title>
	<path class="path1" d="M512 0c-69.746 0-113.295 15.432-126.080 20.48-2.168 0.615-4.063 1.498-5.777 2.633 2.77-1.54 0.017-0.713 0.017-0.713l-138.24 36.48c-2.566 0.593-4.828 1.59-6.839 2.933 2.733-1.571 2.094-1.133 1.719-1.013-2.008 1.924-3.621 4.242-4.715 6.833-9.111-1.873-66.979 19.21-98.965 72.527-48.924 81.493-129.28 213.12-129.28 213.12-1.956 3.082-3.116 6.836-3.116 10.861 0 7.243 3.76 13.609 9.435 17.25l135.122 83.249c3.082 1.956 6.836 3.116 10.861 3.116 7.243 0 13.609-3.76 17.25-9.435l51.889-81.362v606.080c0.001 11.31 9.17 20.479 20.48 20.48h532.48c11.31-0.001 20.479-9.17 20.48-20.48l-1.28-483.84 0.64-122.88 52.48 81.92c3.691 5.756 10.056 9.516 17.299 9.516 4.025 0 7.778-1.161 10.944-3.166l134.956-83.15c5.756-3.691 9.516-10.056 9.516-17.299 0-4.025-1.161-7.778-3.166-10.944 0.050 0.084-80.306-131.543-129.23-213.036-32.437-54.068-91.672-74.848-103.68-78.72-1.924-2.008-4.242-3.621-6.833-4.715 5.535 3.868 3.839 2.856 3.633 2.795-0.191-0.006-0.415-0.010-0.64-0.010s-0.449 0.004-0.673 0.011c-1.891-2.009-4.209-3.621-6.8-4.716l4.913 4.075c-1.797-0.721-3.877-1.205-6.050-1.349l-130.91-35.131c0 0-2.753-0.827-3.84-1.28-1.797-0.721-3.877-1.205-6.050-1.349-8.655-4.339-52.204-19.771-121.95-19.771zM512 40.96c47.465 0 78.199 6.723 96 12.16-2.65 4.719-6.136 9.84-10.88 15.36-14.321 16.664-37.968 33.92-85.12 33.92s-70.799-17.256-85.12-33.92c-4.744-5.52-8.23-10.641-10.88-15.36 17.801-5.437 48.535-12.16 96-12.16zM376.96 65.28c4.111 8.936 9.326 19.335 18.56 30.080 20.879 24.296 58.672 48 116.48 48s95.601-23.704 116.48-48c9.234-10.745 14.449-21.144 18.56-30.080l105.6 28.16c-8.928 26.481-30.728 104.476 4.48 211.84-0.006 0.191-0.010 0.416-0.010 0.641 0 1.819 0.237 3.583 0.682 5.262l-1.312 188.017 1.28 463.36h-491.52v-649.6c0.026-0.383 0.040-0.83 0.040-1.28s-0.015-0.897-0.043-1.34c49.659-91.29 16.788-187.823 5.763-216.9l104.96-28.16zM235.52 106.88c11.302 38.667 29.309 124.279-5.12 186.24-1.752 2.371-3.020 5.208-3.599 8.287 1.583-4.925 1.776-4.609 1.679-4.447-1.684 2.221-2.941 4.863-3.596 7.734l-75.124 115.146-100.48-62.080c11.37-18.633 73.954-121.381 119.040-196.48 16.638-27.733 47.53-45.062 67.2-54.4zM789.12 106.88c19.704 9.41 50.060 26.896 66.56 54.4 45.086 75.099 107.67 177.847 119.040 196.48l-100.48 62.080-77.44-121.6c-29.518-84.295-16.866-157.353-7.68-191.36z"></path>
</symbol>
<symbol id="icon-TestTube" viewBox="0 0 1024 1024">
	<title>TestTube</title>
	<path class="path1" d="M573.44 0c-45.001 0-81.92 36.919-81.92 81.92 0 15 4.384 28.824 11.52 40.96h-154.88c-0.287-0.014-0.622-0.023-0.96-0.023s-0.673 0.008-1.007 0.024c-10.407 1.013-18.513 9.755-18.513 20.39 0 0.031 0 0.062 0 0.093v81.915c0.001 11.31 9.17 20.479 20.48 20.48h20.48v161.92c-0.137 0.516-0.549 2.164-1.28 3.84-1.461 3.353-4.264 8.769-7.68 14.72-6.831 11.902-17.069 27.529-29.44 46.080-24.742 37.101-58.069 84.766-91.52 135.040s-66.614 103.343-92.16 151.68c-25.546 48.337-44.16 91.121-44.16 128 0 33.735 11.845 60.846 29.44 80.64s39.883 32.236 61.44 40.32c43.115 16.168 85.12 16 85.12 16h467.2c0 0 42.005 0.168 85.12-16 21.557-8.084 43.845-20.526 61.44-40.32s29.44-46.905 29.44-80.64c0-36.879-18.614-79.663-44.16-128s-58.709-101.406-92.16-151.68c-33.451-50.274-66.778-97.939-91.52-135.040-12.371-18.551-22.609-34.178-29.44-46.080-3.416-5.951-6.218-11.367-7.68-14.72-0.731-1.677-1.143-3.324-1.28-3.84v-161.92h20.48c11.31-0.001 20.479-9.17 20.48-20.48v-81.92c-0.001-11.31-9.17-20.479-20.48-20.48h-32c7.136-12.136 11.52-25.96 11.52-40.96 0-45.001-36.919-81.92-81.92-81.92zM573.44 40.96c22.864 0 40.96 18.096 40.96 40.96s-18.096 40.96-40.96 40.96c-22.864 0-40.96-18.096-40.96-40.96s18.096-40.96 40.96-40.96zM368.64 163.84h286.72v40.96h-261.76c-1.564-0.428-3.36-0.674-5.213-0.674-0.418 0-0.832 0.013-1.244 0.037-2.111 0.613-4.006 1.496-5.721 2.63l-12.783-1.993v-40.96zM409.6 245.76h204.8v163.84c0 8.368 2.041 12.965 4.48 18.56s5.736 11.187 9.6 17.92c7.729 13.466 18.131 30.402 30.72 49.28 14.576 21.857 34.733 51.137 53.12 78.080h-400.64c18.387-26.943 38.544-56.223 53.12-78.080 12.589-18.878 22.991-35.814 30.72-49.28 3.864-6.733 7.162-12.325 9.6-17.92s4.48-10.192 4.48-18.56v-163.84zM512 286.72c-45.001 0-81.92 36.919-81.92 81.92s36.919 81.92 81.92 81.92c45.001 0 81.92-36.919 81.92-81.92s-36.919-81.92-81.92-81.92zM512 327.68c22.864 0 40.96 18.096 40.96 40.96s-18.096 40.96-40.96 40.96c-22.864 0-40.96-18.096-40.96-40.96s18.096-40.96 40.96-40.96zM284.16 614.4c0.383 0.025 0.83 0.040 1.28 0.040s0.897-0.014 1.34-0.043l450.5 0.003c0.383 0.025 0.83 0.040 1.28 0.040s0.897-0.014 1.34-0.043c3.856 5.83 6.893 10.101 10.82 16.003 33.109 49.761 66.506 101.721 90.88 147.84s39.040 87.557 39.040 108.8c0 24.633-7.611 40.722-19.2 53.76s-28.085 22.292-45.44 28.8c-34.709 13.016-70.4 13.44-70.4 13.44h-467.2c0 0-35.691-0.424-70.4-13.44-17.355-6.508-33.851-15.762-45.44-28.8s-19.2-29.127-19.2-53.76c0-21.243 14.666-62.681 39.040-108.8s57.771-98.079 90.88-147.84c3.927-5.902 6.963-10.173 10.88-16zM409.6 654.72c-45.183 0-82.56 37.377-82.56 82.56s37.377 82.56 82.56 82.56c45.183 0 82.56-37.377 82.56-82.56s-37.377-82.56-82.56-82.56zM409.6 696.96c22.682 0 40.32 17.638 40.32 40.32s-17.638 40.32-40.32 40.32c-22.682 0-40.32-17.638-40.32-40.32s17.638-40.32 40.32-40.32zM634.88 737.28c-56.311 0-102.4 46.089-102.4 102.4s46.089 102.4 102.4 102.4c56.311 0 102.4-46.089 102.4-102.4s-46.089-102.4-102.4-102.4zM634.88 778.24c34.175 0 61.44 27.265 61.44 61.44s-27.265 61.44-61.44 61.44c-34.175 0-61.44-27.265-61.44-61.44s27.265-61.44 61.44-61.44z"></path>
</symbol>
</defs>
</svg>
