<svg xmlns="http://www.w3.org/2000/svg" width="50" height="50" viewBox="0 0 50 50">
    <path style="text-indent:0;text-align:start;line-height:normal;text-transform:none;block-progression:tb;-inkscape-font-specification:Bitstream Vera Sans" d="M 25 0 C 21.594454 0 19.468018 0.75351641 18.84375 1 A 1.0001 1.0001 0 0 0 18.75 1.03125 C 18.696915 1.0533542 18.5625 1.09375 18.5625 1.09375 L 11.8125 2.875 A 1.0001 1.0001 0 0 0 11.625 2.9375 C 11.61199 2.9415248 11.580771 2.9628889 11.5625 2.96875 A 1.0001 1.0001 0 0 0 11.53125 3 C 10.887402 3.2109012 8.0618179 4.240372 6.5 6.84375 C 4.1111221 10.822884 0.1875 17.25 0.1875 17.25 A 1.0001 1.0001 0 0 0 0.5 18.625 L 7.09375 22.6875 A 1.0001 1.0001 0 0 0 8.46875 22.375 L 11 18.40625 L 11 48 A 1.0001 1.0001 0 0 0 12 49 L 38 49 A 1.0001 1.0001 0 0 0 39 48 L 38.9375 24.375 L 38.96875 18.375 L 41.53125 22.375 A 1.0001 1.0001 0 0 0 42.90625 22.6875 L 49.5 18.625 A 1.0001 1.0001 0 0 0 49.8125 17.25 C 49.8125 17.25 45.888878 10.822884 43.5 6.84375 C 41.916184 4.2037047 39.023814 3.1890673 38.4375 3 A 1.0001 1.0001 0 0 0 38.40625 2.96875 C 38.374154 2.958613 38.291328 2.9092124 38.28125 2.90625 A 1.0001 1.0001 0 0 0 38.21875 2.90625 A 1.0001 1.0001 0 0 0 38.1875 2.875 L 38.125 2.875 A 1.0001 1.0001 0 0 0 38.03125 2.84375 L 31.4375 1.09375 C 31.4375 1.09375 31.303085 1.0533542 31.25 1.03125 A 1.0001 1.0001 0 0 0 31.15625 1 C 30.531982 0.75351641 28.405546 0 25 0 z M 25 2 C 27.317612 2 28.818328 2.3282471 29.6875 2.59375 C 29.558117 2.8241879 29.387881 3.0742159 29.15625 3.34375 C 28.456987 4.1574379 27.302337 5 25 5 C 22.697663 5 21.543013 4.1574379 20.84375 3.34375 C 20.612119 3.0742159 20.441883 2.8241879 20.3125 2.59375 C 21.181672 2.3282471 22.682388 2 25 2 z M 18.40625 3.1875 C 18.606968 3.623827 18.861603 4.1315701 19.3125 4.65625 C 20.331987 5.8425621 22.177337 7 25 7 C 27.822663 7 29.668013 5.8425621 30.6875 4.65625 C 31.138397 4.1315701 31.393032 3.623827 31.59375 3.1875 L 36.75 4.5625 C 36.31408 5.8555216 35.249591 9.6638728 36.96875 14.90625 A 1.0001 1.0001 0 0 0 37 15.1875 L 36.9375 24.375 L 37 47 L 13 47 L 13 15.28125 A 1.0001 1.0001 0 0 0 13 15.15625 C 15.424616 10.695803 13.819579 5.9822591 13.28125 4.5625 L 18.40625 3.1875 z M 11.5 5.21875 C 12.051851 7.1068099 12.931097 11.287079 11.25 14.3125 A 1.0001 1.0001 0 0 0 11.15625 14.46875 C 11.15155 14.476663 11.160988 14.492104 11.15625 14.5 A 1.0001 1.0001 0 0 0 11.09375 14.59375 L 7.3125 20.5 L 2.40625 17.46875 C 2.9614213 16.558952 6.017286 11.54196 8.21875 7.875 C 9.031136 6.5208423 10.539545 5.6746912 11.5 5.21875 z M 38.53125 5.21875 C 39.493374 5.678226 40.975586 6.5320462 41.78125 7.875 C 43.982714 11.54196 47.038579 16.558952 47.59375 17.46875 L 42.6875 20.5 L 38.90625 14.5625 C 37.464923 10.446531 38.082725 6.8792511 38.53125 5.21875 z" color="#000" overflow="visible" enable-background="accumulate" font-family="Bitstream Vera Sans"/>
</svg>