<?xml version="1.0" encoding="utf-8"?>
<!-- Generator: Adobe Illustrator 18.0.0, SVG Export Plug-In . SVG Version: 6.00 Build 0)  -->
<!DOCTYPE svg PUBLIC "-//W3C//DTD SVG 1.1//EN" "http://www.w3.org/Graphics/SVG/1.1/DTD/svg11.dtd">
<svg version="1.1" id="Layer_1" xmlns="http://www.w3.org/2000/svg" xmlns:xlink="http://www.w3.org/1999/xlink" x="0px" y="0px"
	 viewBox="0 0 500 500" enable-background="new 0 0 500 500" xml:space="preserve">
<g>
	<path fill="#FFFFFF" stroke="#58595B" stroke-width="1.5" stroke-miterlimit="10" d="M422.8,172.8c0,95.4-77.3,172.8-172.8,172.8
		c-95.4,0-172.8-77.3-172.8-172.8C77.2,77.3,154.6,0,250,0C345.4,0,422.8,77.3,422.8,172.8z"/>
	<path fill="#009688" d="M384.6,172.8c0,74.3-60.2,134.6-134.6,134.6c-74.3,0-134.6-60.2-134.6-134.6c0-74.3,60.2-134.6,134.6-134.6
		C324.3,38.2,384.6,98.5,384.6,172.8z"/>
	<g>
		<path fill="#FFFFFF" d="M136,158.4c0-2.1,1.6-3.7,3.7-3.7h11.7c4.3,0,7.6,1.2,9.8,3.4c1.9,1.9,2.9,4.5,2.9,7.7v0.1
			c0,5.3-2.6,8.6-6.7,10.3l5.1,6.3c0.7,0.9,1.2,1.7,1.2,2.8c0,2.1-1.7,3.4-3.5,3.4c-1.7,0-2.8-0.8-3.7-1.9l-7.2-9.1h-5.9v7.4
			c0,2.1-1.6,3.7-3.7,3.7c-2.1,0-3.7-1.6-3.7-3.7V158.4z M151,171c3.6,0,5.7-1.9,5.7-4.8v-0.1c0-3.2-2.2-4.8-5.8-4.8h-7.4v9.7H151z"
			/>
		<path fill="#FFFFFF" d="M170.9,184.7v-26.3c0-2.1,1.6-3.7,3.7-3.7h18.7c1.8,0,3.3,1.5,3.3,3.3c0,1.8-1.5,3.3-3.3,3.3h-15v6.8h12.9
			c1.8,0,3.3,1.5,3.3,3.3c0,1.8-1.5,3.3-3.3,3.3h-12.9v7.1h15.3c1.8,0,3.3,1.5,3.3,3.3c0,1.8-1.5,3.3-3.3,3.3h-18.9
			C172.5,188.4,170.9,186.7,170.9,184.7z"/>
		<path fill="#FFFFFF" d="M201.6,171.6L201.6,171.6c0-9.7,7.6-17.5,18-17.5c10.4,0,17.9,7.8,17.9,17.3v0.1c0,3.6-1.1,6.9-3,9.7
			l1.4,1.2c0.8,0.7,1.3,1.6,1.3,2.8c0,1.9-1.5,3.5-3.5,3.5c-1,0-1.9-0.4-2.5-1l-1.8-1.6c-2.8,1.8-6.3,2.9-10,2.9
			C209.1,188.9,201.6,181.2,201.6,171.6z M219.1,175.4c0-1.9,1.5-3.5,3.5-3.5c1,0,1.7,0.3,2.5,1l3.7,3.3c0.6-1.3,0.9-2.9,0.9-4.6
			v-0.1c0-5.8-4.2-10.6-10.2-10.6c-6,0-10.1,4.7-10.1,10.5v0.1c0,5.8,4.2,10.6,10.2,10.6c1.6,0,3.1-0.3,4.4-0.9l-3.5-3
			C219.7,177.5,219.1,176.6,219.1,175.4z"/>
		<path fill="#FFFFFF" d="M243.5,173.9v-15.8c0-2.1,1.6-3.7,3.7-3.7c2.1,0,3.7,1.6,3.7,3.7v15.6c0,5.5,2.7,8.3,7.3,8.3
			c4.5,0,7.3-2.7,7.3-8.1v-15.9c0-2.1,1.6-3.7,3.7-3.7c2.1,0,3.7,1.6,3.7,3.7v15.6c0,10.2-5.7,15.2-14.8,15.2
			C249,188.9,243.5,183.8,243.5,173.9z"/>
		<path fill="#FFFFFF" d="M280.4,184.7v-26.3c0-2.1,1.6-3.7,3.7-3.7h18.7c1.8,0,3.3,1.5,3.3,3.3c0,1.8-1.5,3.3-3.3,3.3h-15v6.8h12.9
			c1.8,0,3.3,1.5,3.3,3.3c0,1.8-1.5,3.3-3.3,3.3h-12.9v7.1h15.3c1.8,0,3.3,1.5,3.3,3.3c0,1.8-1.5,3.3-3.3,3.3h-18.9
			C282.1,188.4,280.4,186.7,280.4,184.7z"/>
		<path fill="#FFFFFF" d="M312,184.8c-0.8-0.6-1.4-1.6-1.4-2.8c0-1.9,1.5-3.4,3.5-3.4c1,0,1.6,0.3,2.1,0.7c2.6,1.9,5.3,3,8.6,3
			c3,0,4.9-1.2,4.9-3.2V179c0-1.9-1.2-2.8-6.8-4.3c-6.8-1.7-11.2-3.6-11.2-10.3v-0.1c0-6.1,4.9-10.2,11.8-10.2c4.1,0,7.7,1.1,10.7,3
			c0.8,0.5,1.6,1.5,1.6,2.9c0,1.9-1.5,3.4-3.5,3.4c-0.7,0-1.3-0.2-1.9-0.5c-2.5-1.4-4.8-2.3-7.1-2.3c-2.8,0-4.3,1.3-4.3,2.9v0.1
			c0,2.2,1.4,2.9,7.3,4.4c6.8,1.8,10.7,4.2,10.7,10.1v0.1c0,6.7-5.1,10.4-12.4,10.4C320.2,188.9,315.8,187.5,312,184.8z"/>
		<path fill="#FFFFFF" d="M350.6,161.5h-7.1c-1.9,0-3.4-1.5-3.4-3.4c0-1.9,1.5-3.4,3.4-3.4h21.7c1.9,0,3.4,1.5,3.4,3.4
			c0,1.9-1.5,3.4-3.4,3.4H358V185c0,2.1-1.6,3.7-3.7,3.7c-2.1,0-3.7-1.6-3.7-3.7V161.5z"/>
	</g>
	<g>
		<path fill="#FFFFFF" d="M298.6,498.8c0,0-48.1,3.5-85-36.8l-69.4-60.2c0,0-16.3-22.7-2.8-35.4c0,0,16.3-7.1,28.3,5l27.6,22.7
			c0,0,14.2,12,25.5,3.5c0,0,13.5-9.2,13.5-25.5V252.4c0,0,3.5-21.2,18.4-19.8c0,0,21.2,4.2,19.8,22.7v71.5c0,0,7.1-14.2,17.7-12.7
			c0,0,18.4,3.5,19.1,24.1c0,0,6.4-11.3,19.1-7.8c0,0,17.7,2.8,17.7,21.2c0,0,11.3-14.2,23.4-9.2c0,0,14.2-2.1,14.2,37.5v36.8
			C385.7,416.7,373.7,503.8,298.6,498.8z"/>
		<g>
			
				<path fill="none" stroke="#58595B" stroke-width="1.5" stroke-linecap="round" stroke-linejoin="round" stroke-miterlimit="10" d="
				M273.4,362.7V337c0,0,0-21.2,18.5-22.3c0,0,17.6-1.1,19,21.6v26.8"/>
			
				<path fill="none" stroke="#58595B" stroke-width="1.5" stroke-linecap="round" stroke-linejoin="round" stroke-miterlimit="10" d="
				M310.9,357.6v-6c0,0,0-21.2,18.5-22.3c0,0,17.6-1.1,19,21.6v20.4"/>
			
				<path fill="none" stroke="#58595B" stroke-width="1.5" stroke-linecap="round" stroke-linejoin="round" stroke-miterlimit="10" d="
				M348.5,370.3v-6c0,0,0-21.2,18.5-22.3c0,0,17.6-1.1,19,21.6c0,0,0,42.8,0,42.8c0,21-7.7,45.7-19.5,62.9
				c-16.9,24.6-41.8,29.8-70.1,29.8c-19.1-0.1-38.2-3.4-55.9-15.3c-8.1-5.5-17.5-13.4-24.9-19.8c-20.1-17.6-39.9-35.7-59.8-53.7
				c-5-4.5-10.1-8.8-14.9-13.4c0,0-13.8-14.5,0.4-28.3c0,0,11-11.3,25.8,0.4l33.3,26.9c0,0,13.5,8.5,22.7,1.4
				c0,0,12.7-5.3,12.7-24.4V256c0,0,0-21.2,18.5-22.3c0,0,17.6-1.1,19,21.6v106.6"/>
		</g>
	</g>
</g>
</svg>
