<?xml version="1.0" encoding="utf-8"?>
<!-- Generator: Adobe Illustrator 18.0.0, SVG Export Plug-In . SVG Version: 6.00 Build 0)  -->
<!DOCTYPE svg PUBLIC "-//W3C//DTD SVG 1.1//EN" "http://www.w3.org/Graphics/SVG/1.1/DTD/svg11.dtd">
<svg version="1.1" id="Layer_1" xmlns="http://www.w3.org/2000/svg" xmlns:xlink="http://www.w3.org/1999/xlink" x="0px" y="0px"
	 viewBox="0 0 500 500" enable-background="new 0 0 500 500" xml:space="preserve">
<polygon fill="#FFFFFF" stroke="#58595B" stroke-width="1.5" stroke-linecap="round" stroke-linejoin="round" stroke-miterlimit="10" points="
	170.2,410.3 191.6,417.9 216.7,347.1 195.4,339.5 "/>
<path fill="#009688" d="M462.1,231.1l-65.6-44.8l-86.4,96.5l-170.2-30.9l-7.7,15.6c-6,15.4-12.8,49.3,29.8,72.5
	c15.7,8.5,33.4,14.5,50.5,19.2c34.3,9.5,73.5,16,108.7,7.8c55-12.9,100.3-62.4,127.6-109.7C453.4,249.4,457.9,240.5,462.1,231.1"/>
<g>
	<path fill="#FFFFFF" d="M483,137.1c0,0-87.5-80.9-97.4-82.9c0,0-59.1-15.1-27.7,106.5c0,0-65,52.4-76.4,72.4
		c0,0-72.7-69.3-127.4-53.3c0,0-30.4,19.2-32.2,45.8c0,0-48.2,28.3-80.3,83.8c0,0-39.3-20.7-41.1-1.9c0,0,44.9,57,63,21.9
		c0,0,44.1-60.5,70.6-66.4c0,0,32.9,65.2,50,71c0,0-26.5,38.1-14.6,42.7c0,0,71.6-26.8,31.7-58.8c0,0-22.8-36.1-24.6-51.9
		c0,0,87.1,80.1,146.3,40.9c0,0,64.3-51,80.5-93c0,0,55.9,40.1,87.8-1.3C491.3,212.7,513.2,179.5,483,137.1z M396.2,140.5
		c0,0-27.7-45-13.4-54.9c0,0,10.6-7.4,31.1,13.7C413.9,99.3,396.6,123.3,396.2,140.5z M464.9,198.1c-26.2,5.4-41.2-29.9-41.2-29.9
		c25.6,9.3,46.1-14.6,46.1-14.6C488.3,187.7,464.9,198.1,464.9,198.1z"/>
</g>
<g>
	<path fill="none" stroke="#58595B" stroke-width="1.5" stroke-linecap="round" stroke-linejoin="round" stroke-miterlimit="10" d="
		M472.9,139c-4.3,20.3-24.2,33.2-44.4,28.9c-20.3-4.3-33.2-24.2-28.9-44.5c4.3-20.3,24.2-33.2,44.5-28.9
		C464.3,98.9,477.2,118.8,472.9,139z"/>
	<path fill="none" stroke="#58595B" stroke-width="1.5" stroke-linecap="round" stroke-linejoin="round" stroke-miterlimit="10" d="
		M423.1,168.1c0,0,15.3,37.1,41.8,31.1c0,0,23.2-6.2,5.2-49"/>
	<path fill="none" stroke="#58595B" stroke-width="1.5" stroke-linecap="round" stroke-linejoin="round" stroke-miterlimit="10" d="
		M476.8,128.9c0,0,40.8,52.9,13.2,86.5c0,0-29.8,38.5-86-1.7c-18.3,31.3-41.5,61.3-68.7,85.2c-16.6,14.5-34,21.3-55.4,18.8
		c-22.2-2.6-43.4-9.2-62.9-20.3c-14.9-8.5-29-20-41.1-32.3"/>
	<path fill="none" stroke="#58595B" stroke-width="1.5" stroke-linecap="round" stroke-linejoin="round" stroke-miterlimit="10" d="
		M413.2,99.8c0,0-22.2-22.7-31.5-11.8c0,0-14.6,17.5,15.3,55.3"/>
	<path fill="none" stroke="#58595B" stroke-width="1.5" stroke-linecap="round" stroke-linejoin="round" stroke-miterlimit="10" d="
		M430,92.6c0,0-41-54.7-67.5-34c0,0-33.5,21.2-3.1,104"/>
	<path fill="none" stroke="#58595B" stroke-width="1.5" stroke-linecap="round" stroke-linejoin="round" stroke-miterlimit="10" d="
		M383.1,123.6c0,0-14.2,1.2-30,13.8"/>
	<path fill="none" stroke="#58595B" stroke-width="1.5" stroke-linecap="round" stroke-linejoin="round" stroke-miterlimit="10" d="
		M441.5,193.2c0,0-9.6,11.7-16.4,32.1"/>
	<path fill="none" stroke="#58595B" stroke-width="1.5" stroke-linecap="round" stroke-linejoin="round" stroke-miterlimit="10" d="
		M263.7,259.5c-53.3-36.3-78.6-37.4-78.6-37.4c-15.3-0.7-14.7,13.8-14.7,13.8c-1.8,35.4,30.4,81.1,30.2,81.6
		c-6.6,14-14.5,16.1-16.6,17.7C114.7,259.4,124,221.6,124,221.6c2.9-24.4,15.4-39.1,38.4-44c21-4.5,46.8,7.6,64.5,17.3
		c15.8,8.6,30.9,19.4,45.1,30.5c3,2.3,6.3,4.4,9.1,7c21.7-26.3,53.8-52.8,78.1-69.3"/>
	<path fill="none" stroke="#58595B" stroke-width="1.5" stroke-linecap="round" stroke-linejoin="round" stroke-miterlimit="10" d="
		M281.4,233.7c0,0,4.5,42.6,41.6,71"/>
	<path fill="none" stroke="#58595B" stroke-width="1.5" stroke-linecap="round" stroke-linejoin="round" stroke-miterlimit="10" d="
		M121.3,223.4c-11,7.5-53,38.1-77.8,87.1c0,0,6.2,10.3,19.6,16.4c0,0,42.9-53.8,68-63.3"/>
	<path fill="none" stroke="#58595B" stroke-width="1.5" stroke-linecap="round" stroke-linejoin="round" stroke-miterlimit="10" d="
		M43.5,310.5c0,0-45.7-23.8-43.4-4.1c0,0,5.5,16.6,33.4,30.2c0,0,25.1,14.9,29.7-9.8"/>
	<path fill="none" stroke="#58595B" stroke-width="1.5" stroke-linecap="round" stroke-linejoin="round" stroke-miterlimit="10" d="
		M183.3,336.1c0,0-30.8,41.2-11.3,42.1c0,0,17-2.8,34.9-28.1c0,0,18.7-22.3-4.5-30.8"/>
	<path fill="none" stroke="#58595B" stroke-width="1.5" stroke-linecap="round" stroke-linejoin="round" stroke-miterlimit="10" d="
		M395.8,144c0,0-13.1,13.3-3,24.7c0,0,10.2,12.4,26.9-2.7"/>
	<path fill="#58595B" d="M458.4,126.8c0,0-51-16-26.6-54c0,0,7-6.7,10.6,0.5c0,0,2.4,9.1,10,11.5c10.1,3.3,20.7,6.5,27.5,15.2
		c7.7,9.8,10,23.7,6,35.2c0,0-4.7,20.4-27.3,31.9C458.4,167,446.8,149.1,458.4,126.8z"/>
</g>
<path fill="#FFFFFF" stroke="#58595B" stroke-width="1.5" stroke-linecap="round" stroke-linejoin="round" stroke-miterlimit="10" d="
	M130,387.4c0,0,55.9,31,119.8,37.5c0,0,113.9,12.8,183.4-61l13.9,16.2c0,0-62.7,77.1-197.8,67.4c0,0-82.3-8.2-128.8-41.5L130,387.4z
	"/>
</svg>
