<?xml version="1.0" encoding="utf-8"?>
<!-- Generator: Adobe Illustrator 18.0.0, SVG Export Plug-In . SVG Version: 6.00 Build 0)  -->
<!DOCTYPE svg PUBLIC "-//W3C//DTD SVG 1.1//EN" "http://www.w3.org/Graphics/SVG/1.1/DTD/svg11.dtd">
<svg version="1.1" id="Layer_1" xmlns="http://www.w3.org/2000/svg" xmlns:xlink="http://www.w3.org/1999/xlink" x="0px" y="0px"
	 viewBox="0 0 500 500" enable-background="new 0 0 500 500" xml:space="preserve">
<path fill="#FFFFFF" stroke="#58595B" stroke-width="1.5" stroke-linecap="round" stroke-linejoin="round" stroke-miterlimit="10" d="
	M364.8,480.9c3.3,6.5,0.6,14.4-5.8,17.7l0,0c-6.5,3.3-14.4,0.6-17.7-5.8l-22-43.6c-3.3-6.5-0.6-14.4,5.9-17.7l0,0
	c6.5-3.3,14.4-0.6,17.7,5.8L364.8,480.9z"/>
<path fill="#FFFFFF" stroke="#58595B" stroke-width="1.5" stroke-linecap="round" stroke-linejoin="round" stroke-miterlimit="10" d="
	M136.7,481.4c-3.1,6.6-0.3,14.4,6.3,17.5l0,0c6.6,3.1,14.4,0.3,17.5-6.3l20.8-44.2c3.1-6.6,0.3-14.4-6.3-17.5l0,0
	c-6.6-3.1-14.4-0.3-17.5,6.3L136.7,481.4z"/>
<path fill="#FFFFFF" stroke="#58595B" stroke-width="1.5" stroke-miterlimit="10" d="M285.9,35.8c0,19.8-16.1,35.9-35.9,35.9
	c-19.8,0-35.9-16.1-35.9-35.9c0-19.9,16.1-35.9,35.9-35.9C269.9-0.2,285.9,15.9,285.9,35.8z"/>
<path fill="#FFFFFF" stroke="#58595B" stroke-width="1.5" stroke-miterlimit="10" d="M477.4,263.5
	C475.1,389.1,371.4,489,245.8,486.7C120.3,484.4,20.4,380.8,22.6,255.2C24.9,129.6,128.6,29.7,254.1,32
	C379.7,34.3,479.7,137.9,477.4,263.5z"/>
<path fill="#009688" d="M432.3,259.3c0,100.7-81.6,182.3-182.3,182.3c-100.7,0-182.3-81.6-182.3-182.3
	c0-100.7,81.6-182.3,182.3-182.3C350.7,77.1,432.3,158.7,432.3,259.3z"/>
<path fill="#FFFFFF" d="M273.6,259.3c0,13-10.6,23.6-23.6,23.6c-13,0-23.6-10.6-23.6-23.6c0-13,10.6-23.6,23.6-23.6
	C263,235.8,273.6,246.3,273.6,259.3z"/>
<path fill="#FFFFFF" d="M260,107.6c0,5.5-4.5,10-10,10c-5.5,0-10-4.5-10-10c0-5.5,4.5-10,10-10C255.5,97.5,260,102,260,107.6z"/>
<path fill="#FFFFFF" d="M260,414.2c0,5.5-4.5,10-10,10c-5.5,0-10-4.5-10-10c0-5.5,4.5-10,10-10C255.5,404.2,260,408.7,260,414.2z"/>
<polyline fill="none" stroke="#FFFFFF" stroke-width="1.5" stroke-linecap="round" stroke-linejoin="round" stroke-miterlimit="10" points="
	192.1,126.4 245.7,250.8 318.6,325.8 "/>
<path fill="#FFFFFF" d="M403.3,270.9c-5.5,0-10-4.5-10-10c0-5.5,4.5-10,10-10c5.5,0,10,4.5,10,10
	C413.4,266.4,408.9,270.9,403.3,270.9z"/>
<path fill="#FFFFFF" d="M96.7,270.9c-5.5,0-10-4.5-10-10c0-5.5,4.5-10,10-10c5.5,0,10,4.5,10,10C106.7,266.4,102.2,270.9,96.7,270.9
	z"/>
<path fill="#FFFFFF" d="M351.3,376.4c-3.9-3.9-3.9-10.3,0-14.2c3.9-3.9,10.3-3.9,14.2,0c3.9,3.9,3.9,10.3,0,14.2
	C361.6,380.3,355.2,380.3,351.3,376.4z"/>
<path fill="#FFFFFF" d="M134.5,159.6c-3.9-3.9-3.9-10.3,0-14.2c3.9-3.9,10.3-3.9,14.2,0c3.9,3.9,3.9,10.3,0,14.2
	C144.7,163.5,138.4,163.5,134.5,159.6z"/>
<path fill="#FFFFFF" d="M134.5,362.2c3.9-3.9,10.3-3.9,14.2,0c3.9,3.9,3.9,10.3,0,14.2c-3.9,3.9-10.3,3.9-14.2,0
	C130.6,372.5,130.6,366.2,134.5,362.2z"/>
<path fill="#FFFFFF" d="M351.3,145.4c3.9-3.9,10.3-3.9,14.2,0c3.9,3.9,3.9,10.3,0,14.2c-3.9,3.9-10.3,3.9-14.2,0
	C347.4,155.7,347.4,149.3,351.3,145.4z"/>
</svg>
