<?xml version="1.0" encoding="utf-8"?>
<!-- Generator: Adobe Illustrator 18.0.0, SVG Export Plug-In . SVG Version: 6.00 Build 0)  -->
<!DOCTYPE svg PUBLIC "-//W3C//DTD SVG 1.1//EN" "http://www.w3.org/Graphics/SVG/1.1/DTD/svg11.dtd">
<svg version="1.1" id="Layer_1" xmlns="http://www.w3.org/2000/svg" xmlns:xlink="http://www.w3.org/1999/xlink" x="0px" y="0px"
	 viewBox="0 0 500 500" enable-background="new 0 0 500 500" xml:space="preserve">
<path fill="#FFFFFF" d="M196.9,27.4l-58.5,1.1c0,0-19.8,30.1,2.8,54.6c0,0-81.9,51.4-18.1,126.5L143,465.5c0,0-40.4,14.2-31.2,29.1
	c0,0,9.2,13.5,59.5-4.3c0,0,55.3,17,65.2,1.4c0,0,1.4-13.5-31.9-23.4L216,225.9l14.2-4.3c0,0,22,27.6,30.5,25.5
	c0,0,15.6-29.1-26.2-41.1l-18.4,0.7l2.1-59.5l15.6,0.7l1.4-39c0,0-26.9-19.1-48.9-20.6C186.2,88.4,210.3,63.6,196.9,27.4z"/>
<line fill="none" stroke="#58595B" stroke-width="1.5" stroke-linecap="round" stroke-linejoin="round" stroke-miterlimit="10" x1="221.3" y1="145.5" x2="233.4" y2="147"/>
<path fill="none" stroke="#58595B" stroke-width="1.5" stroke-linecap="round" stroke-linejoin="round" stroke-miterlimit="10" d="
	M191.3,89c0,0,26.7,7.2,48,20.9"/>
<polyline fill="#009588" stroke="#009588" stroke-width="2" stroke-linecap="round" stroke-linejoin="round" stroke-miterlimit="10" points="
	241,204.8 241,204.5 241,94.8 391.2,94.8 391.2,313.8 241,313.8 241,229.7 "/>
<path fill="none" stroke="#58595B" stroke-width="1.5" stroke-linecap="round" stroke-linejoin="round" stroke-miterlimit="10" d="
	M201,54.1c0,19.8-16.1,35.9-35.9,35.9c-19.8,0-35.9-16.1-35.9-35.9c0-19.8,16.1-35.9,35.9-35.9C184.9,18.2,201,34.3,201,54.1z"/>
<path fill="#FFFFFF" stroke="#58595B" stroke-width="1.5" stroke-linecap="round" stroke-linejoin="round" stroke-miterlimit="10" d="
	M387.7,209.4c0,0-15.7,17.6-16.4,30.3c0,0-0.1,8.5,11.1,4.8c0,0,19.3-6.8,19.1-25.3C401.6,219.2,399,197.9,387.7,209.4z"/>
<polyline fill="none" stroke="#FFFFFF" stroke-width="5" stroke-linecap="round" stroke-linejoin="round" stroke-miterlimit="10" points="
	271.4,177.1 295.5,204.7 361.6,145.6 "/>
<line fill="none" stroke="#FFFFFF" stroke-width="2" stroke-linecap="round" stroke-linejoin="round" stroke-miterlimit="10" x1="280.6" y1="238" x2="350.4" y2="238"/>
<line fill="none" stroke="#FFFFFF" stroke-width="2" stroke-linecap="round" stroke-linejoin="round" stroke-miterlimit="10" x1="280.6" y1="261" x2="350.4" y2="261"/>
<line fill="none" stroke="#FFFFFF" stroke-width="2" stroke-linecap="round" stroke-linejoin="round" stroke-miterlimit="10" x1="280.6" y1="284.1" x2="350.4" y2="284.1"/>
<path fill="none" stroke="#58595B" stroke-width="1.5" stroke-linecap="round" stroke-linejoin="round" stroke-miterlimit="10" d="
	M144.9,86.6c0,0-5.3,26.1,24.8,25.8c0,0,20.1-2.3,17.2-25.8"/>
<line fill="none" stroke="#58595B" stroke-width="1.5" stroke-linecap="round" stroke-linejoin="round" stroke-miterlimit="10" x1="219" y1="135.9" x2="217.3" y2="199.3"/>
<path fill="none" stroke="#58595B" stroke-width="1.5" stroke-linecap="round" stroke-linejoin="round" stroke-miterlimit="10" d="
	M99.4,143.3c0,0,11.3,12.8,34.4,12.8"/>
<path fill="none" stroke="#58595B" stroke-width="1.5" stroke-linecap="round" stroke-linejoin="round" stroke-miterlimit="10" d="
	M216.8,228.6L208,467.3c0,0-16.4,12-33.4-1.2"/>
<path fill="none" stroke="#58595B" stroke-width="1.5" stroke-linecap="round" stroke-linejoin="round" stroke-miterlimit="10" d="
	M122.9,212.9l18.9,252.9c0,0,10.9,11.8,31.7,1.9V296.1"/>
<path fill="none" stroke="#58595B" stroke-width="1.5" stroke-linecap="round" stroke-linejoin="round" stroke-miterlimit="10" d="
	M128.2,260.1c0,0,35.3,19,86.7,0"/>
<path fill="none" stroke="#58595B" stroke-width="1.5" stroke-linecap="round" stroke-linejoin="round" stroke-miterlimit="10" d="
	M173.5,469.8v20.1c0,0-54.5,17.6-60.9,4.7c0,0-10.1-12.9,29-25.6"/>
<path fill="none" stroke="#58595B" stroke-width="1.5" stroke-linecap="round" stroke-linejoin="round" stroke-miterlimit="10" d="
	M173.8,469.8v20.1c0,0,54.5,17.6,60.9,4.7c0,0,10.1-12.9-29-25.6"/>
<path fill="#FFFFFF" d="M229,206.9c0,0,51.3,11.5,31.7,40.3c0,0-23.3-7.9-30.5-25.5L229,206.9z"/>
<path fill="none" stroke="#58595B" stroke-width="1.5" stroke-linecap="round" stroke-linejoin="round" stroke-miterlimit="10" d="
	M139.5,139.8c-3.7,8-7.7,21.5-1.8,35.4c0,0,6.7,20.6,36.2,26.2c0,0,25.2,4.6,50.7,3.5c0,0,26.6-2.1,37.9,23.4
	c1.8,4.2,3.9,14.2-0.4,17.4c-6.8,5.1-10.6-1.5-14.5-5c-5.6-4.9-9.8-11.8-14.9-17.2c0,0-58.8,8.4-99.6-7.9c0,0-24.8-9.2-32.6-38.6
	c0,0-14.9-58.5,36.5-90"/>
<path fill="#58595B" d="M192.7,41.4c0,0-73.3,21.7-80.3-32.6c0,0-2.6-8.4,11.3-2.4c0,0,4.9,0.7,15.8-1.2c14.4-2.5,32-6.8,45.2-2.1
	c15,5.2,23,19,24.3,32.3c0,0,1.3,22-8.2,37.6C200.8,73,190.5,69.7,192.7,41.4z"/>
</svg>
