<?xml version="1.0" encoding="utf-8"?>
<!-- Generator: Adobe Illustrator 18.0.0, SVG Export Plug-In . SVG Version: 6.00 Build 0)  -->
<!DOCTYPE svg PUBLIC "-//W3C//DTD SVG 1.1//EN" "http://www.w3.org/Graphics/SVG/1.1/DTD/svg11.dtd">
<svg version="1.1" id="Layer_1" xmlns="http://www.w3.org/2000/svg" xmlns:xlink="http://www.w3.org/1999/xlink" x="0px" y="0px"
	 viewBox="0 0 500 500" enable-background="new 0 0 500 500" xml:space="preserve">
<path fill="#FFFFFF" stroke="#58595B" stroke-width="1.5" stroke-linecap="round" stroke-linejoin="round" stroke-miterlimit="10" d="
	M319.8,41.8C291.5,26.5,268,11.2,251.1-0.4L250.6,0L250-0.5c-16.9,11.7-40.5,27-68.8,42.4C129.8,69.7,79.5,88.4,33.4,97.5
	c-1.4,49.3-1.7,91.8,5.3,129.7c7.7,41.9,22.1,78.3,41.1,111.4c32.5,56.8,85.5,105.3,170.8,161c85.2-55.7,138.2-104.2,170.8-161
	c18.9-33,33.4-69.5,41.1-111.4c6.9-37.9,6.7-80.4,5.3-129.7C421.4,88.4,371.1,69.7,319.8,41.8z"/>
<path fill="#009588" d="M304.7,87.3c-22.1-12-40.5-23.9-53.7-33l-0.4,0.3l-0.5-0.4c-13.2,9.1-31.6,21.1-53.8,33.1
	c-40.1,21.8-79.4,36.3-115.4,43.4c-1.1,38.5-1.3,71.7,4.1,101.3c6,32.7,17.3,61.2,32.1,87c25.4,44.4,66.8,82.2,133.4,125.7
	c66.6-43.5,107.9-81.4,133.4-125.7c14.8-25.8,26.1-54.3,32.1-87c5.4-29.6,5.2-62.8,4.1-101.3C384,123.6,344.7,109,304.7,87.3z"/>
<polyline fill="none" stroke="#FFFFFF" stroke-width="6" stroke-linecap="round" stroke-linejoin="round" stroke-miterlimit="10" points="
	180.7,245.5 224.3,295.2 343.5,188.7 "/>
</svg>
