<?xml version="1.0" encoding="utf-8"?>
<!-- Generator: Adobe Illustrator 18.0.0, SVG Export Plug-In . SVG Version: 6.00 Build 0)  -->
<!DOCTYPE svg PUBLIC "-//W3C//DTD SVG 1.1//EN" "http://www.w3.org/Graphics/SVG/1.1/DTD/svg11.dtd">
<svg version="1.1" id="Layer_1" xmlns="http://www.w3.org/2000/svg" xmlns:xlink="http://www.w3.org/1999/xlink" x="0px" y="0px"
	 viewBox="0 0 500 500" enable-background="new 0 0 500 500" xml:space="preserve">
<g>
	<path fill="#58595B" d="M60.6,478.6v-0.1c0-11.7,9.1-21.2,21.5-21.2c6.2,0,10.3,1.4,14,4c0.9,0.7,1.9,1.9,1.9,3.6
		c0,2.5-2,4.5-4.5,4.5c-1.3,0-2.1-0.5-2.7-1c-2.5-1.8-5.1-2.8-9-2.8c-6.6,0-11.8,5.8-11.8,12.8v0.1c0,7.5,5.2,13,12.4,13
		c3.3,0,6.2-0.8,8.5-2.5v-5.9h-6.1c-2.2,0-3.9-1.7-3.9-3.9c0-2.2,1.8-3.9,3.9-3.9h10.3c2.5,0,4.5,2,4.5,4.5v10c0,2.6-1,4.5-3.2,5.7
		c-3.3,2-8.2,4.1-14.3,4.1C69.4,499.7,60.6,490.7,60.6,478.6z"/>
	<path fill="#58595B" d="M107.7,481.4v-19.3c0-2.5,2-4.5,4.5-4.5c2.5,0,4.5,2,4.5,4.5v19c0,6.7,3.3,10.1,8.9,10.1
		c5.5,0,8.8-3.3,8.8-9.8v-19.3c0-2.5,2-4.5,4.5-4.5c2.5,0,4.5,2,4.5,4.5v19c0,12.4-7,18.5-18,18.5
		C114.4,499.6,107.7,493.5,107.7,481.4z"/>
	<path fill="#58595B" d="M149.5,493.2l14.3-32.3c1-2.2,2.8-3.6,5.3-3.6h0.5c2.5,0,4.2,1.3,5.2,3.6l14.3,32.3
		c0.3,0.6,0.5,1.2,0.5,1.8c0,2.4-1.9,4.3-4.3,4.3c-2.1,0-3.5-1.2-4.3-3.1l-2.8-6.4h-18l-2.9,6.7c-0.8,1.8-2.3,2.8-4.2,2.8
		c-2.4,0-4.2-1.9-4.2-4.2C149,494.5,149.2,493.8,149.5,493.2z M174.9,481.8l-5.7-13.5l-5.7,13.5H174.9z"/>
	<path fill="#58595B" d="M196.7,462.5c0-2.5,2-4.5,4.5-4.5h14.2c5.2,0,9.3,1.5,11.9,4.2c2.3,2.3,3.5,5.5,3.5,9.4v0.1
		c0,6.4-3.2,10.4-8.2,12.5l6.3,7.6c0.9,1.1,1.5,2,1.5,3.4c0,2.5-2.1,4.2-4.3,4.2c-2,0-3.4-1-4.5-2.3l-8.8-11.1h-7.2v9
		c0,2.5-2,4.5-4.5,4.5c-2.5,0-4.5-2-4.5-4.5V462.5z M214.8,477.9c4.4,0,6.9-2.3,6.9-5.8V472c0-3.9-2.7-5.9-7.1-5.9h-9v11.8H214.8z"
		/>
	<path fill="#58595B" d="M236.8,493.2l14.3-32.3c1-2.2,2.8-3.6,5.3-3.6h0.5c2.5,0,4.2,1.3,5.2,3.6l14.3,32.3
		c0.3,0.6,0.5,1.2,0.5,1.8c0,2.4-1.9,4.3-4.3,4.3c-2.1,0-3.5-1.2-4.3-3.1l-2.8-6.4h-18l-2.9,6.7c-0.8,1.8-2.3,2.8-4.2,2.8
		c-2.3,0-4.2-1.9-4.2-4.2C236.2,494.5,236.5,493.8,236.8,493.2z M262.1,481.8l-5.7-13.5l-5.7,13.5H262.1z"/>
	<path fill="#58595B" d="M283.9,462.2c0-2.5,2-4.5,4.5-4.5h0.9c2.2,0,3.5,1,4.7,2.6l17.4,22.9v-21.1c0-2.5,2-4.5,4.5-4.5
		c2.5,0,4.5,2,4.5,4.5v32.6c0,2.5-2,4.5-4.5,4.5h-0.3c-2.2,0-3.5-1-4.7-2.6l-18.1-23.7v22c0,2.5-2,4.4-4.4,4.4c-2.5,0-4.5-2-4.5-4.4
		V462.2z"/>
	<path fill="#58595B" d="M339.8,466.3h-8.7c-2.3,0-4.2-1.9-4.2-4.2c0-2.3,1.9-4.2,4.2-4.2h26.4c2.3,0,4.2,1.9,4.2,4.2
		c0,2.3-1.9,4.2-4.2,4.2h-8.7v28.5c0,2.5-2,4.5-4.5,4.5c-2.5,0-4.5-2-4.5-4.5V466.3z"/>
	<path fill="#58595B" d="M368.2,494.5v-32c0-2.5,2-4.5,4.5-4.5h22.7c2.2,0,4,1.8,4,4c0,2.2-1.8,4-4,4h-18.3v8.3h15.6
		c2.2,0,4,1.8,4,4c0,2.2-1.8,4-4,4h-15.6v8.6h18.6c2.2,0,4,1.8,4,4c0,2.2-1.8,4-4,4h-23C370.2,499,368.2,497,368.2,494.5z"/>
	<path fill="#58595B" d="M407.5,494.5v-32c0-2.5,2-4.5,4.5-4.5h22.7c2.2,0,4,1.8,4,4c0,2.2-1.8,4-4,4h-18.3v8.3h15.6
		c2.2,0,4,1.8,4,4c0,2.2-1.8,4-4,4h-15.6v8.6H435c2.2,0,4,1.8,4,4c0,2.2-1.8,4-4,4h-23C409.5,499,407.5,497,407.5,494.5z"/>
</g>
<g>
	<path fill="#FFFFFF" d="M170.6,175.1l49.4-29.2l60,2.8l42.6,26.4l-2.8,46.6l-28.1,1.1l-5.6,101c0,0-38.7,34.8-74.1-1.1l-9-102.7
		l-26.9,0.6C176.2,220.5,175.1,180.1,170.6,175.1z"/>
	
		<path fill="#FFFFFF" stroke="#58595B" stroke-width="1.5" stroke-linecap="round" stroke-linejoin="round" stroke-miterlimit="10" d="
		M311,90.5c0,34.1-27.6,61.7-61.7,61.7c-34.1,0-61.7-27.6-61.7-61.7s27.6-61.7,61.7-61.7C283.4,28.7,311,56.4,311,90.5z"/>
	<path fill="#58595B" d="M293.2,68.9c0,0-123.9,36.7-135.8-54.8c0,0-4.4-14.1,19.2-4c0,0,8.3,1.2,26.6-2c24.3-4.2,54-11.4,76.4-3.7
		c25.3,8.7,38.8,31.9,41,54.4c0,0,2.1,37.1-13.9,63.4C306.7,122.2,289.4,116.5,293.2,68.9z"/>
	<path fill="none" stroke="#58595B" stroke-width="1.5" stroke-linecap="round" stroke-linejoin="round" stroke-miterlimit="10" d="
		M217.2,146.2c0,0-2.8,38.7,32,38.7c0,0,32.5-0.6,30.3-39.3"/>
	<path fill="none" stroke="#58595B" stroke-width="1.5" stroke-linecap="round" stroke-linejoin="round" stroke-miterlimit="10" d="
		M202.4,201.7c0,0,10.5,81.3,9.6,121.7c0,0,35.9,27.4,74.4,0c0,0-1.1-50.5,6.5-121.7"/>
	
		<line fill="none" stroke="#58595B" stroke-width="1.5" stroke-linecap="round" stroke-linejoin="round" stroke-miterlimit="10" x1="295.1" y1="218.6" x2="321" y2="218.6"/>
	
		<line fill="none" stroke="#58595B" stroke-width="1.5" stroke-linecap="round" stroke-linejoin="round" stroke-miterlimit="10" x1="177.1" y1="218.6" x2="202.9" y2="218.6"/>
	
		<line fill="none" stroke="#58595B" stroke-width="1.5" stroke-linecap="round" stroke-linejoin="round" stroke-miterlimit="10" x1="211.5" y1="152.6" x2="173.4" y2="173.3"/>
	
		<line fill="none" stroke="#58595B" stroke-width="1.5" stroke-linecap="round" stroke-linejoin="round" stroke-miterlimit="10" x1="284.4" y1="152.6" x2="322.6" y2="173.3"/>
	
		<path fill="#FFFFFF" stroke="#58595B" stroke-width="1.5" stroke-linecap="round" stroke-linejoin="round" stroke-miterlimit="10" d="
		M364.7,152.6c0,0,16.1-32.5-0.3-53.5c-6.4-8.2-20.2-4.6-23.2,4.3c-1.5,4.5,0.4,9.5,0.5,14.2c0.2,7.4-1.9,15.5-4.8,22.5
		c-3.5,8.4-9,16-11.9,24.8c-8.7,25.7-9.4,72.9,30.6,74.1c0,0,27.4,2.7,35.6-18.3"/>
	
		<path fill="#FFFFFF" stroke="#58595B" stroke-width="1.5" stroke-linecap="round" stroke-linejoin="round" stroke-miterlimit="10" d="
		M413.1,216.1c0,6.4-13.3,11.7-29.7,11.7c-16.4,0-29.7-5.2-29.7-11.7s13.3-11.7,29.7-11.7C399.8,204.4,413.1,209.7,413.1,216.1z"/>
	
		<path fill="#FFFFFF" stroke="#58595B" stroke-width="1.5" stroke-linecap="round" stroke-linejoin="round" stroke-miterlimit="10" d="
		M421.9,192.5c0,6.4-17.1,11.7-38.1,11.7c-21,0-38.1-5.2-38.1-11.7c0-6.5,17.1-11.7,38.1-11.7C404.9,180.8,421.9,186,421.9,192.5z"
		/>
	
		<path fill="#FFFFFF" stroke="#58595B" stroke-width="1.5" stroke-linecap="round" stroke-linejoin="round" stroke-miterlimit="10" d="
		M417.5,165.3c0,6.4-15.3,11.7-34.1,11.7c-18.9,0-34.1-5.2-34.1-11.7c0-6.5,15.3-11.7,34.1-11.7
		C402.2,153.7,417.5,158.9,417.5,165.3z"/>
	
		<path fill="#FFFFFF" stroke="#58595B" stroke-width="1.5" stroke-linecap="round" stroke-linejoin="round" stroke-miterlimit="10" d="
		M130.9,152.6c0,0-16.1-32.5,0.3-53.5c6.4-8.2,20.2-4.6,23.2,4.3c1.5,4.5-0.4,9.5-0.5,14.2c-0.2,7.4,1.9,15.5,4.8,22.5
		c3.5,8.4,8.9,16,11.9,24.8c8.7,25.7,9.4,72.9-30.6,74.1c0,0-27.4,2.7-35.6-18.3"/>
	
		<path fill="#FFFFFF" stroke="#58595B" stroke-width="1.5" stroke-linecap="round" stroke-linejoin="round" stroke-miterlimit="10" d="
		M82.5,216.1c0,6.4,13.3,11.7,29.7,11.7c16.4,0,29.7-5.2,29.7-11.7s-13.3-11.7-29.7-11.7C95.8,204.4,82.5,209.7,82.5,216.1z"/>
	
		<path fill="#FFFFFF" stroke="#58595B" stroke-width="1.5" stroke-linecap="round" stroke-linejoin="round" stroke-miterlimit="10" d="
		M73.7,192.5c0,6.4,17,11.7,38.1,11.7c21,0,38.1-5.2,38.1-11.7c0-6.5-17.1-11.7-38.1-11.7C90.7,180.8,73.7,186,73.7,192.5z"/>
	
		<path fill="#FFFFFF" stroke="#58595B" stroke-width="1.5" stroke-linecap="round" stroke-linejoin="round" stroke-miterlimit="10" d="
		M78,165.3c0,6.4,15.3,11.7,34.1,11.7c18.9,0,34.1-5.2,34.1-11.7c0-6.5-15.3-11.7-34.1-11.7C93.3,153.7,78,158.9,78,165.3z"/>
</g>
<path fill="#009588" stroke="#009588" stroke-width="0.75" stroke-linecap="round" stroke-linejoin="round" stroke-miterlimit="10" d="
	M69.5,422.9l29.9-52.3H68.6c-4.2,0-7.7-3.3-7.7-7.6c0-4.3,3.4-7.7,7.7-7.7h43.6c4.9,0,8,2.9,8,7.9c0,2.6-1,5.9-2.5,8.6l-32.3,58.6
	c-2.3,4.2-5.1,6-8.5,6c-4.7,0-9.1-2.9-9.1-7.9C67.9,426.9,68.6,424.5,69.5,422.9z"/>
<path fill="#009588" stroke="#009588" stroke-width="0.75" stroke-linecap="round" stroke-linejoin="round" stroke-miterlimit="10" d="
	M142.3,364.1c0-4.9,3.9-8.8,8.8-8.8h22.5c25.3,0,42.7,17.3,42.7,40v0.2c0,22.6-17.5,40.2-42.7,40.2h-22.5c-4.9,0-8.8-3.9-8.8-8.8
	V364.1z M173.7,419.7c14.5,0,24.2-9.8,24.2-24v-0.2c0-14.2-9.8-24.2-24.2-24.2H160v48.4H173.7z"/>
<path fill="#009588" stroke="#009588" stroke-width="0.75" stroke-linecap="round" stroke-linejoin="round" stroke-miterlimit="10" d="
	M224.2,424.3l28-63.3c2-4.4,5.5-7,10.3-7h1c4.8,0,8.3,2.6,10.2,7l28,63.3c0.6,1.3,0.9,2.4,0.9,3.6c0,4.7-3.7,8.5-8.4,8.5
	c-4.1,0-6.9-2.4-8.5-6.1l-5.4-12.6h-35.4l-5.6,13.2c-1.5,3.4-4.5,5.5-8.2,5.5c-4.6,0-8.2-3.7-8.2-8.3
	C223.2,426.8,223.6,425.5,224.2,424.3z M273.9,402l-11.1-26.5L251.6,402H273.9z"/>
<path fill="#009588" stroke="#009588" stroke-width="0.75" stroke-linecap="round" stroke-linejoin="round" stroke-miterlimit="10" d="
	M329,404.6l-25.9-35.2c-1.3-1.7-2.2-3.8-2.2-6.3c0-4.7,3.9-8.5,8.8-8.5c4,0,6.5,2.2,8.7,5.4l19.5,28.1l19.9-28.4
	c2.2-3.2,4.8-5.3,8.5-5.3c5.4,0,8.6,3.8,8.6,8.6c0,2.4-1.1,4.6-2.3,6.2l-25.9,35v23.2c0,4.9-3.9,8.8-8.8,8.8c-4.9,0-8.8-3.9-8.8-8.8
	V404.6z"/>
<path fill="#009588" stroke="#009588" stroke-width="0.75" stroke-linecap="round" stroke-linejoin="round" stroke-miterlimit="10" d="
	M383.1,427.1c-2-1.4-3.3-3.9-3.3-6.7c0-4.6,3.7-8.2,8.3-8.2c2.3,0,3.9,0.8,5,1.6c6.1,4.5,12.7,7.2,20.6,7.2c7.2,0,11.6-2.9,11.6-7.6
	v-0.2c0-4.5-2.8-6.8-16.2-10.2c-16.2-4.1-26.6-8.6-26.6-24.6v-0.2c0-14.6,11.7-24.2,28.1-24.2c9.8,0,18.3,2.5,25.5,7.1
	c1.9,1.1,3.9,3.6,3.9,7c0,4.6-3.7,8.1-8.3,8.1c-1.7,0-3.1-0.5-4.5-1.3c-5.9-3.4-11.4-5.4-16.9-5.4c-6.8,0-10.3,3.1-10.3,7v0.2
	c0,5.3,3.4,7,17.3,10.6c16.3,4.2,25.5,10.1,25.5,24.1v0.2c0,16-12.2,24.9-29.5,24.9C402.8,436.8,392.1,433.6,383.1,427.1z"/>
<path fill="#009588" d="M115.4,408.2H67.6c-5.8,0-10.4-4.7-10.4-10.4c0-5.8,4.7-10.4,10.4-10.4h47.8c5.8,0,10.4,4.7,10.4,10.4
	C125.8,403.5,121.1,408.2,115.4,408.2z"/>
</svg>
