<?xml version="1.0" encoding="utf-8"?>
<!-- Generator: Adobe Illustrator 18.0.0, SVG Export Plug-In . SVG Version: 6.00 Build 0)  -->
<!DOCTYPE svg PUBLIC "-//W3C//DTD SVG 1.1//EN" "http://www.w3.org/Graphics/SVG/1.1/DTD/svg11.dtd">
<svg version="1.1" id="Layer_1" xmlns="http://www.w3.org/2000/svg" xmlns:xlink="http://www.w3.org/1999/xlink" x="0px" y="0px"
	 viewBox="0 0 500 500" enable-background="new 0 0 500 500" xml:space="preserve">
<path fill="#FFFFFF" stroke="#58595B" stroke-width="1.5" stroke-linecap="round" stroke-linejoin="round" stroke-miterlimit="10" d="
	M206.3,245.8c1.4,6.8,3.2,13.5,5.4,20c6.7,19.7,15.6,43.2,41.3,33.5c0,0,13.6-8.4,12.1-29.4c-3.6-25.4-5.6-54.1,1.5-79
	c3.1-10.6,9.4-20.9,19.6-25.9c9.8-4.8,13.3,2.5,13.5,12c0,0,1,69.3,7.3,106c4.9,28.5,6.4,59.1,0.6,87.5c-2.9,14.4-8.4,28.1-12,42.3
	c-3.4,13.1-5.9,26.4-7.4,39.9c-1.1,10-1.6,20.1-1.2,30.2c0,0-45.1,35.2-89.2,0c0,0,2.6-46.7-6.8-74.5c-3.2-6.8-6.4-13.5-9.7-20.2
	c-2.8-5.7-5.6-11.4-8.6-17c-8.4-15.9-18.8-27.7-20.6-46.4c-0.8-8-0.2-16.1,1.1-24l7.3-74.5"/>
<line fill="#FFFFFF" stroke="#58595B" stroke-width="1.5" stroke-linecap="round" stroke-linejoin="round" stroke-miterlimit="10" x1="142.8" y1="50.7" x2="112.8" y2="27.4"/>
<line fill="#FFFFFF" stroke="#58595B" stroke-width="1.5" stroke-linecap="round" stroke-linejoin="round" stroke-miterlimit="10" x1="167.2" y1="35" x2="150.1" y2="1"/>
<line fill="#FFFFFF" stroke="#58595B" stroke-width="1.5" stroke-linecap="round" stroke-linejoin="round" stroke-miterlimit="10" x1="131.9" y1="80.8" x2="94.4" y2="74.2"/>
<g>
	<path fill="#009688" d="M369.4,290.9c-3.7,9.7-14.7,14.6-24.4,10.9l-217.5-83.5c-9.7-3.7-14.6-14.7-10.9-24.4l45.1-117.5
		c3.7-9.7,14.7-14.6,24.4-10.9L403.7,149c9.7,3.7,14.6,14.7,10.9,24.4L369.4,290.9z"/>
	<path fill="#FFFFFF" d="M176.5,205.1c-0.6,1.6-2.4,2.4-4.1,1.8L146,196.7c-1.6-0.6-2.4-2.4-1.8-4.1l10.2-26.4
		c0.6-1.6,2.4-2.4,4.1-1.8l26.4,10.2c1.6,0.6,2.4,2.4,1.8,4.1L176.5,205.1z"/>
	<polygon fill="#FFFFFF" points="403.8,201.5 151,104.4 159.8,81.7 412.5,178.7 	"/>
</g>
<path fill="#FFFFFF" stroke="#58595B" stroke-width="1.5" stroke-linecap="round" stroke-linejoin="round" stroke-miterlimit="10" d="
	M253,299.3c0,0,13.6-8.4,12.1-29.4c-3.6-25.4-5.6-54.1,1.5-79c3.1-10.6,9.4-20.9,19.6-25.9c9.8-4.8,13.3,2.5,13.5,12
	c0,0,1,69.3,7.3,106c4.9,28.5,6.4,59.1,0.6,87.5c-2.9,14.4-8.4,28.1-12,42.3"/>
</svg>
