<svg display="none" width="0" height="0" version="1.1" xmlns="http://www.w3.org/2000/svg" xmlns:xlink="http://www.w3.org/1999/xlink">
<defs>
<symbol id="icon-appliances" viewBox="0 0 1024 1024">
	<title>appliances</title>
	<path class="path1" d="M512.197 51.239c188.81 0 342.41 153.679 342.41 342.607 0 188.889-153.679 342.567-342.567 342.607-188.928-0.039-342.646-153.718-342.646-342.607 0-188.928 153.679-342.607 342.686-342.607h0.118zM512.158 7.404h-0.079c0 0-0.039 0-0.079 0-213.386 0-386.481 173.056-386.481 386.481 0 213.346 173.135 386.442 386.481 386.481 213.307-0.039 386.442-173.135 386.442-386.481 0.039-213.504-173.056-386.481-386.284-386.481v0z"></path>
	<path class="path2" d="M551.463 317.558c34.58-128.039-38.558-209.881-136.783-200.507-46.316 4.529-92.751 63.803-64.236 117.76 26.742 50.57 82.708 45.883 99.84 103.542 15.951-21.898 47.734-46.513 101.179-20.795z"></path>
	<path class="path3" d="M426.22 397.785c-128.197 34.068-162.54 138.319-105.275 218.703 27.018 37.849 101.612 48.443 134.065-3.269 30.405-48.404-1.615-94.523 39.739-138.201-26.86-2.914-64.118-18.078-68.529-77.233z"></path>
	<path class="path4" d="M558.316 466.156c93.578 93.932 201.019 71.562 242.018-18.196 19.259-42.338-8.862-112.286-69.868-114.491-57.108-2.166-81.054 48.64-139.54 34.698 10.91 24.694 16.423 64.551-32.61 97.989z"></path>
	<path class="path5" d="M563.042 393.846c0 28.19-22.852 51.042-51.042 51.042s-51.042-22.852-51.042-51.042c0-28.19 22.852-51.042 51.042-51.042s51.042 22.852 51.042 51.042z"></path>
	<path class="path6" d="M590.769 827.077c0 0-14.927 12.327-78.769 12.327s-78.769-12.327-78.769-12.327c0 78.809-157.538 92.318-157.538 157.538v39.385h472.615v-39.385c0-65.221-157.538-78.73-157.538-157.538z"></path>
</symbol>
<symbol id="icon-beauty" viewBox="0 0 1024 1024">
	<title>beauty</title>
	<path class="path1" d="M271.754 106.338c-31.508 0-153.6 70.892-153.6 287.508 0 189.046 106.338 252.062 106.338 319.015 0 98.462-102.4 177.231-102.4 177.231s208.738-74.831 208.738-248.123c-114.215-11.815-141.785-161.477-141.785-220.554 0-149.662 90.585-244.185 90.585-244.185-39.385 177.231 196.923 126.031 196.923 385.969 0 98.462-35.446 185.108-35.446 185.108s39.385-11.815 66.954-43.323c-39.385 106.338-173.292 271.754-307.2 295.385 98.462 63.015 704.985 19.692 704.985-571.077 0-291.446-244.185-429.292-445.046-429.292-86.646 0-177.231 35.446-177.231 59.077 153.6 0 267.815 122.092 267.815 177.231-7.877-15.754-141.785-129.969-279.631-129.969z"></path>
</symbol>
<symbol id="icon-carpentry" viewBox="0 0 1024 1024">
	<title>carpentry</title>
	<path class="path1" d="M151.788 1011.476c-15.36 15.321-40.369 15.321-55.729 0l-83.535-83.535c-15.36-15.399-15.321-40.369 0-55.69l421.061-421.061 139.264 139.264-421.061 421.022z"></path>
	<path class="path2" d="M672.926 211.692c15.399-15.321 40.369-15.321 55.769 0l83.535 83.535c15.321 15.399 15.321 40.369-0.039 55.729l-186.88 186.919-139.225-139.264 186.841-186.919z"></path>
	<path class="path3" d="M1009.782 493.017l-77.273-77.194c0 0-11.343-5.278-16.896-2.442-12.17 6.223-47.38 10.516-64.788-6.932-25.364-25.364-52.027-51.948-52.027-51.948l-105.551 105.551c0 0 24.418 24.34 51.988 51.948 17.25 17.25 14.572 50.412 8.468 62.543-3.663 7.326 0.118 19.929 0.118 19.929l77.273 77.194c15.36 15.36 40.33 15.36 55.729 0.039l122.919-122.959c15.321-15.36 15.321-40.369 0.039-55.729z"></path>
	<path class="path4" d="M812.229 295.542c15.321 15.36 15.321 40.369 0 55.729l-122.919 122.919c-15.399 15.36-40.369 15.321-55.729 0 0 0-140.052-84.007-109.253-114.176 30.169-29.538 25.049-80.62-59.904-169.63-103.385-108.308-262.538-147.85-262.538-147.85s358.242 0.945 427.678 70.42c20.441 20.362 182.666 182.587 182.666 182.587z"></path>
</symbol>
<symbol id="icon-electrical" viewBox="0 0 1024 1024">
	<title>electrical</title>
	<path class="path1" d="M220.554 259.938l-47.262 271.754c-3.938 15.754 59.077 90.585 141.785 177.231s161.477 149.662 177.231 145.723l267.815-47.262c0 0-106.338-94.523-275.692-263.877s-263.877-283.569-263.877-283.569z"></path>
	<path class="path2" d="M267.815 838.892l-82.708-82.708c-39.385-39.385-39.385-98.462 0-137.846l137.846-137.846 216.615 216.615-137.846 137.846c-35.446 39.385-94.523 39.385-133.908 3.938z"></path>
</symbol>
<symbol id="icon-fitness" viewBox="0 0 1024 1024">
	<title>fitness</title>
	<path class="path1" d="M236.308 827.077c-21.701 0-39.385-17.684-39.385-39.385v-590.769c0-21.701 17.684-39.385 39.385-39.385h78.769c21.701 0 39.385 17.684 39.385 39.385v590.769c0 21.701-17.684 39.385-39.385 39.385h-78.769z"></path>
	<path class="path2" d="M118.154 748.308c-21.701 0-39.385-17.684-39.385-39.385v-433.231c0-21.701 17.684-39.385 39.385-39.385h39.385v512h-39.385z"></path>
	<path class="path3" d="M708.923 827.077c-21.701 0-39.385-17.684-39.385-39.385v-590.769c0-21.701 17.684-39.385 39.385-39.385h78.769c21.701 0 39.385 17.684 39.385 39.385v590.769c0 21.701-17.684 39.385-39.385 39.385h-78.769z"></path>
	<path class="path4" d="M866.462 748.308v-512h39.385c21.701 0 39.385 17.684 39.385 39.385v433.231c0 21.701-17.684 39.385-39.385 39.385h-39.385z"></path>
	<path class="path5" d="M984.615 433.231h-78.769v118.154h78.769c21.701 0 39.385-17.684 39.385-39.385v-39.385c0-21.701-17.684-39.385-39.385-39.385z"></path>
	<path class="path6" d="M118.154 433.231h-78.769c-21.701 0-39.385 17.684-39.385 39.385v39.385c0 21.701 17.684 39.385 39.385 39.385h78.769v-118.154z"></path>
	<path class="path7" d="M315.077 433.231h393.846v118.154h-393.846v-118.154z"></path>
</symbol>
<symbol id="icon-house_cleaning" viewBox="0 0 1024 1024">
	<title>house_cleaning</title>
	<path class="path1" d="M902.42 413.617c-13.194-5.868-136.704-60.849-149.937-66.718-62.11-27.648-134.853 0.315-162.462 62.385l374.784 166.794c27.648-62.11-0.315-134.853-62.385-162.462z"></path>
	<path class="path2" d="M993.004 8.192c-20.716-9.216-42.732-6.853-49.467 5.79l-154.821 290.343 121.068 53.839 112.049-309.366c4.884-13.47-8.113-31.39-28.83-40.606z"></path>
	<path class="path3" d="M310.469 813.41c0 0 93.263-3.899 151.552-64.788-46.631 85.504-86.804 107.52-86.804 107.52l-64.748-42.732z"></path>
	<path class="path4" d="M471.631 885.918c0 0 62.031 24.497 207.36-109.371-52.263 119.178-101.218 160.020-101.218 160.020l-106.142-50.649z"></path>
	<path class="path5" d="M118.154 216.615c0 32.627-26.45 59.077-59.077 59.077s-59.077-26.45-59.077-59.077c0-32.627 26.45-59.077 59.077-59.077s59.077 26.45 59.077 59.077z"></path>
	<path class="path6" d="M275.692 236.308c0 21.752-17.633 39.385-39.385 39.385s-39.385-17.633-39.385-39.385c0-21.752 17.633-39.385 39.385-39.385s39.385 17.633 39.385 39.385z"></path>
	<path class="path7" d="M315.077 452.923c0 54.379-44.083 98.462-98.462 98.462s-98.462-44.083-98.462-98.462c0-54.379 44.083-98.462 98.462-98.462s98.462 44.083 98.462 98.462z"></path>
</symbol>
<symbol id="icon-laptop" viewBox="0 0 1024 1024">
	<title>laptop</title>
	<path class="path1" d="M0 945.231h1024v39.385c0 0 0 39.385-39.385 39.385h-945.231c-21.701 0-39.385-17.684-39.385-39.385v-39.385z"></path>
	<path class="path2" d="M827.077 78.769h-630.154c-65.221 0-118.154 52.933-118.154 118.154v393.846c0 65.221 52.933 118.154 118.154 118.154h630.154c65.221 0 118.154-52.933 118.154-118.154v-393.846c0-65.221-52.933-118.154-118.154-118.154zM157.538 590.769v-393.846c0-21.701 17.684-39.385 39.385-39.385h630.154c21.701 0 39.385 17.684 39.385 39.385v393.846c0 21.701-17.684 39.385-39.385 39.385h-630.154c-21.701 0-39.385-17.684-39.385-39.385z"></path>
	<path class="path3" d="M945.231 701.598c-7.050-17.881-26.506-32.020-43.559-32.020h-779.303c-31.074 0.039-43.599 32.020-43.599 32.020l-78.769 204.249h364.386l16.699-43.678c0 0 12.682-35.092 52.066-35.092h157.538c21.543 0 44.702 14.769 52.933 35.092l15.911 43.678h364.465l-78.769-204.249zM196.923 787.692l39.385-78.769h551.385l39.385 78.769h-630.154z"></path>
	<path class="path4" d="M590.769 669.538h-39.385l26.585 157.538h39.385z"></path>
	<path class="path5" d="M472.615 669.538h-39.385l-19.692 157.538h39.385z"></path>
	<path class="path6" d="M354.462 669.538h-39.385l-39.385 157.538h39.385z"></path>
	<path class="path7" d="M708.923 669.538h-39.385l39.385 157.538h39.385z"></path>
</symbol>
<symbol id="icon-laundry" viewBox="0 0 1024 1024">
	<title>laundry</title>
	<path class="path1" d="M0 984.615c0 21.701 17.684 39.385 39.385 39.385h945.231c21.701 0 39.385-17.684 39.385-39.385v-39.385c0-21.701-17.684-39.385-39.385-39.385h-905.846c-21.701 0-78.769 78.769-78.769 78.769z"></path>
	<path class="path2" d="M708.923 512h-157.538c-21.701 0-39.385 17.684-39.385 39.385v50.649h236.308v-50.649c0-21.701-17.684-39.385-39.385-39.385z"></path>
	<path class="path3" d="M728.615 275.692h-393.846c-44.938 0-8.98 148.007 157.538 148.007s174.828-29.854 236.308-29.854 158.956 21.78 164.352 164.352c1.024 27.018 131.033 111.34 131.033 111.34s0-26.466 0-59.077c0-230.006-153.127-334.769-295.385-334.769z"></path>
	<path class="path4" d="M800.020 787.692c0 28.56-23.152 51.712-51.712 51.712s-51.712-23.152-51.712-51.712c0-28.56 23.152-51.712 51.712-51.712s51.712 23.152 51.712 51.712z"></path>
	<path class="path5" d="M642.481 787.692c0 28.56-23.152 51.712-51.712 51.712s-51.712-23.152-51.712-51.712c0-28.56 23.152-51.712 51.712-51.712s51.712 23.152 51.712 51.712z"></path>
	<path class="path6" d="M484.943 787.692c0 28.56-23.152 51.712-51.712 51.712s-51.712-23.152-51.712-51.712c0-28.56 23.152-51.712 51.712-51.712s51.712 23.152 51.712 51.712z"></path>
	<path class="path7" d="M905.846 590.769h118.154v315.077h-118.154v-315.077z"></path>
</symbol>
<symbol id="icon-mobile" viewBox="0 0 1024 1024">
	<title>mobile</title>
	<path class="path1" d="M748.308 0h-433.231c-65.26 0-118.154 52.933-118.154 118.154v787.692c0 65.221 52.894 118.154 118.154 118.154h433.231c65.26 0 118.154-52.933 118.154-118.154v-787.692c0-65.221-52.894-118.154-118.154-118.154zM492.308 39.385h78.769c10.87 0 19.692 8.822 19.692 19.692s-8.822 19.692-19.692 19.692h-78.769c-10.87 0-19.692-8.822-19.692-19.692s8.822-19.692 19.692-19.692zM531.692 975.872c-27.806 0-50.334-22.528-50.334-50.334s22.528-50.334 50.334-50.334 50.334 22.528 50.334 50.334-22.528 50.334-50.334 50.334zM787.692 807.385c0 10.87-8.822 19.692-19.692 19.692h-472.615c-10.87 0-19.692-8.822-19.692-19.692v-669.538c0-10.87 8.822-19.692 19.692-19.692h472.615c10.87 0 19.692 8.822 19.692 19.692v669.538z"></path>
</symbol>
<symbol id="icon-painting" viewBox="0 0 1024 1024">
	<title>painting</title>
	<path class="path1" d="M643.23 7.483l-261.986 261.947 373.366 373.327 261.868-261.947-373.248-373.327zM732.554 513.615c-15.557-15.557 24.97-78.769 0.827-102.873s-78.769 23.276-100.313 1.733c-12.603-12.642-14.139-31.98-1.851-57.62s37.691-76.682 23.828-90.545c-13.903-13.863-52.145 6.774-80.305 25.876-17.841 12.13-60.022 34.383-78.494 15.911-14.572-14.572-14.73-43.481 12.446-70.695 0.158-0.158 134.498-134.577 134.498-134.577l279.985 279.985c0 0-74.673 74.713-103.857 103.857-41.472 41.511-71.247 44.505-86.764 28.948z"></path>
	<path class="path2" d="M381.243 325.12l317.637 317.676-73.216 73.177-317.637-317.637 73.216-73.216zM381.243 269.43l-128.906 128.906 373.327 373.327 128.906-128.866-373.327-373.366z"></path>
	<path class="path3" d="M293.258 625.94c-77.273 77.312-155.924 74.082-204.052 122.25-77.312 77.312-116.027 199.641-64.591 251.156 51.554 51.554 173.883 12.761 251.234-64.473 48.089-48.246 74.082-155.924 122.171-204.052 48.167-48.167 227.604 40.881 227.604 40.881l-373.327-373.327c0.039-0.039 81.841 186.683 40.96 227.564zM154.9 869.061c20.322 20.322 20.322 53.248 0 73.531s-53.209 20.283-73.492 0c-20.322-20.322-20.322-53.248 0-73.531s53.169-20.283 73.492 0z"></path>
</symbol>
<symbol id="icon-pest_control" viewBox="0 0 1024 1024">
	<title>pest_control</title>
	<path class="path1" d="M31.508 630.154c27.569 7.877 51.2 27.569 59.077 39.385 11.815-3.938 31.508-7.877 51.2 3.938 15.754 7.877 23.631 19.692 27.569 35.446 15.754 0 31.508 0 47.262 3.938 23.631 3.938 39.385 19.692 51.2 39.385 19.692-11.815 43.323-19.692 63.015-15.754 23.631 3.938 43.323 11.815 59.077 27.569 11.815-15.754 27.569-23.631 47.262-31.508 27.569-7.877 55.138-7.877 82.708 0 3.938-7.877 11.815-15.754 15.754-23.631 19.692-23.631 47.262-35.446 74.831-39.385 0-15.754 3.938-35.446 11.815-51.2 3.938-11.815 15.754-23.631 23.631-35.446-11.815-19.692-15.754-43.323-15.754-63.015 0-86.646 86.646-161.477 196.923-165.415 43.323 0 27.569 27.569 59.077 43.323 11.815 7.877-114.215 74.831-106.338 82.708 106.338 27.569 212.677-66.954 212.677-66.954 15.754 23.631 27.569 63.015 27.569 98.462 0 129.969-129.969 161.477-236.308 161.477 31.508 19.692 114.215 39.385 192.985 11.815-15.754 224.492-256 149.662-291.446 129.969 11.815 27.569 114.215 78.769 169.354 82.708-70.892 141.785-256 90.585-319.015 0 3.938 39.385 39.385 102.4 90.585 114.215-27.569 3.938-66.954 11.815-114.215 11.815-106.338 0-153.6-90.585-165.415-141.785-19.692 43.323 0 98.462 31.508 129.969-90.585 19.692-185.108-74.831-173.292-169.354-15.754 11.815-39.385 66.954-15.754 110.277-43.323-7.877-141.785-86.646-82.708-192.985-27.569 15.754-43.323 35.446-51.2 78.769-27.569-15.754-55.138-82.708-19.692-141.785-15.754 3.938-31.508 27.569-31.508 27.569s-3.938-11.815-3.938-31.508c0-19.692 11.815-47.262 31.508-63.015z"></path>
	<path class="path2" d="M567.138 291.446c0 102.4 94.523 185.108 208.738 181.169s208.738-90.585 208.738-192.985c0-102.4-94.523-185.108-208.738-181.169-114.215 0-208.738 86.646-208.738 192.985zM638.031 208.738c15.754-31.508 51.2-47.262 78.769-35.446 27.569 15.754 31.508 51.2 15.754 82.708s-51.2 47.262-78.769 35.446c-27.569-11.815-31.508-51.2-15.754-82.708zM870.4 192.985c-19.692-27.569-15.754-51.2 0-51.2 19.692 0 47.262 23.631 66.954 51.2s15.754 51.2 0 51.2c-19.692 0-47.262-23.631-66.954-51.2z"></path>
	<path class="path3" d="M622.277 110.277c-43.323 35.446-63.015 82.708-63.015 82.708s-31.508-98.462 35.446-169.354c3.938 23.631 15.754 63.015 27.569 86.646z"></path>
	<path class="path4" d="M854.646 70.892c27.569 0 66.954 39.385 66.954 39.385s-15.754-82.708-82.708-110.277c3.938 19.692 15.754 51.2 15.754 70.892z"></path>
</symbol>
<symbol id="icon-plumbing" viewBox="0 0 1024 1024">
	<title>plumbing</title>
	<path class="path1" d="M945.231 945.231c0 43.323-35.446 78.769-78.769 78.769s-78.769-35.446-78.769-78.769 78.769-157.538 78.769-157.538 78.769 114.215 78.769 157.538z"></path>
</symbol>
</defs>
</svg>
