<?xml version="1.0" encoding="utf-8"?>
<!-- Generator: Adobe Illustrator 18.1.1, SVG Export Plug-In . SVG Version: 6.00 Build 0)  -->
<svg xmlns="http://www.w3.org/2000/svg" xmlns:xlink="http://www.w3.org/1999/xlink" version="1.1" id="Layer_1" x="0px" y="0px" viewBox="0 0 50 50" enable-background="new 0 0 50 50" xml:space="preserve" fill="#ffc400">
<path fill="none" stroke="#ffc400" stroke-width="2" stroke-linecap="round" stroke-miterlimit="10" d="M19,15h-2c-4.4,0-8,3.6-8,8  v22c0,2.2,1.8,4,4,4h24c2.2,0,4-1.8,4-4V23c0-4.4-3.6-8-8-8h-2H19z"/>
<line fill="none" stroke="#ffc400" stroke-width="2" stroke-linecap="round" stroke-miterlimit="10" x1="29" y1="3" x2="29" y2="9"/>
<line fill="none" stroke="#ffc400" stroke-width="2" stroke-linecap="round" stroke-miterlimit="10" x1="21" y1="9" x2="21" y2="3"/>
<circle fill="none" stroke="#ffc400" stroke-width="2" stroke-linecap="round" stroke-miterlimit="10" cx="22" cy="27" r="5"/>
<path fill="none" stroke="#ffc400" stroke-width="2" stroke-linecap="round" stroke-miterlimit="10" d="M41,29H26.7 M17.4,29H9"/>
<path fill="none" stroke="#ffc400" stroke-width="2" stroke-linecap="round" stroke-miterlimit="10" d="M31,3H20.4c0,0-2.4-2-5.4-2  c-2.5,0-5,2-5,2"/>
<polyline fill="none" stroke="#ffc400" stroke-width="2" stroke-linecap="round" stroke-linejoin="round" stroke-miterlimit="10" points="  31,15 31,9 19,9 19,15 "/>
<circle fill="none" stroke="#ffc400" stroke-width="2" stroke-linecap="round" stroke-miterlimit="10" cx="31" cy="37" r="3"/>
<circle fill="none" stroke="#ffc400" stroke-width="2" stroke-linecap="round" stroke-miterlimit="10" cx="23" cy="43" r="2"/>
</svg>
