<?xml version="1.0" encoding="utf-8"?>
<!-- Generator: Adobe Illustrator 17.1.0, SVG Export Plug-In . SVG Version: 6.00 Build 0)  -->
<!DOCTYPE svg PUBLIC "-//W3C//DTD SVG 1.0//EN" "http://www.w3.org/TR/2001/REC-SVG-20010904/DTD/svg10.dtd">
<svg xmlns="http://www.w3.org/2000/svg" xmlns:xlink="http://www.w3.org/1999/xlink" version="1.0" id="Layer_1" x="0px" y="0px" viewBox="0 0 50 50" enable-background="new 0 0 50 50" xml:space="preserve" fill="#ffc400">
<circle fill="none" stroke="#ffc400" stroke-width="2" stroke-linecap="round" stroke-miterlimit="10" cx="40" cy="35" r="9"/>
<circle fill="none" stroke="#ffc400" stroke-width="2" stroke-linecap="round" stroke-miterlimit="10" cx="25" cy="29" r="3"/>
<circle fill="none" stroke="#ffc400" stroke-width="2" stroke-linecap="round" stroke-miterlimit="10" cx="10" cy="35" r="9"/>
<path fill="none" stroke="#ffc400" stroke-width="2" stroke-linecap="round" stroke-miterlimit="10" d="M5,35c0,2.8,2.2,5,5,5"/>
<path fill="none" stroke="#ffc400" stroke-width="2" stroke-linecap="round" stroke-miterlimit="10" d="M36,35c0,2.8,2.2,5,5,5"/>
<path fill="none" stroke="#ffc400" stroke-width="2" stroke-linecap="round" stroke-miterlimit="10" d="M48.6,32.4  c0,0-3.2-12.7-4.5-17c-0.8-2.4-1.9-5.2-6.8-5.2c-5.3,0-7.2,6.4-8.6,5.2c-1-0.8-2.3-1.3-3.6-1.3s-2.7,0.5-3.6,1.3  c-1.5,1.2-3.3-5.2-8.6-5.2c-5,0-6.1,2.8-6.8,5.2c-1.4,4.3-4.5,17-4.5,17"/>
<path fill="none" stroke="#ffc400" stroke-width="2" stroke-linecap="round" stroke-miterlimit="10" d="M18.9,32.9  c0,0,1.7,3.1,6.1,3.1s6.1-3.1,6.1-3.1"/>
<path fill="none" stroke="#ffc400" stroke-width="2" stroke-linecap="round" stroke-miterlimit="10" d="M41,11C41,11,41,11,41,11  c0-0.3,0-0.5-0.1-0.8C40.6,7.8,38.5,6,36,6c-2.8,0-5,2.2-5,5c0,0.8,0.2,1.6,0.5,2.3"/>
<path fill="none" stroke="#ffc400" stroke-width="2" stroke-linecap="round" stroke-miterlimit="10" d="M9,11C9,11,9,11,9,11  c0-0.3,0-0.5,0.1-0.8C9.4,7.8,11.5,6,14,6c2.8,0,5,2.2,5,5c0,0.8-0.2,1.6-0.5,2.3"/>
</svg>
