<?xml version="1.0" encoding="utf-8"?>
<!-- Generator: Adobe Illustrator 17.0.0, SVG Export Plug-In . SVG Version: 6.00 Build 0)  -->
<!DOCTYPE svg PUBLIC "-//W3C//DTD SVG 1.1//EN" "http://www.w3.org/Graphics/SVG/1.1/DTD/svg11.dtd">
<svg xmlns="http://www.w3.org/2000/svg" xmlns:xlink="http://www.w3.org/1999/xlink" version="1.1" id="Layer_1" x="0px" y="0px" width="50px" height="50px" viewBox="0 0 50 50" enable-background="new 0 0 50 50" xml:space="preserve" fill="#ffc400">



<path fill="none" stroke="#ffc400" stroke-width="2" stroke-linecap="round" stroke-miterlimit="10" d="M19,11c0,0,0,7.158,0,9  c0,1.848-13,17.624-13,23.3C6,49,13.6,49,13.6,49h22.8c0,0,7.6,0,7.6-5.7c0-5.676-13-21.452-13-23.3c0-1.842,0-9,0-9"/>
<circle fill="none" stroke="#ffc400" stroke-width="1.9995" stroke-linecap="round" stroke-miterlimit="10" cx="31" cy="41" r="4"/>
<circle fill="none" stroke="#ffc400" stroke-width="2.0325" stroke-linecap="round" stroke-miterlimit="10" cx="20" cy="36" r="3"/>
<circle fill="none" stroke="#ffc400" stroke-width="2" stroke-linecap="round" stroke-miterlimit="10" cx="28" cy="4" r="3"/>
<circle fill="none" stroke="#ffc400" stroke-width="2" stroke-linecap="round" stroke-miterlimit="10" cx="25" cy="18" r="3"/>
<rect x="17" y="7" fill="none" stroke="#ffc400" stroke-width="2" stroke-linecap="round" stroke-linejoin="round" stroke-miterlimit="10" width="16" height="4"/>
<line fill="none" stroke="#ffc400" stroke-width="2.005" stroke-linecap="round" stroke-miterlimit="10" x1="36" y1="29" x2="14" y2="29"/>
</svg>
