<?xml version="1.0" encoding="utf-8"?>
<!-- Generator: Adobe Illustrator 18.1.1, SVG Export Plug-In . SVG Version: 6.00 Build 0)  -->
<svg xmlns="http://www.w3.org/2000/svg" xmlns:xlink="http://www.w3.org/1999/xlink" version="1.1" id="Layer_1" x="0px" y="0px" viewBox="0 0 50 50" enable-background="new 0 0 50 50" xml:space="preserve" fill="#ffc400">
<path fill="none" stroke="#ffc400" stroke-width="2" stroke-linecap="round" stroke-linejoin="round" stroke-miterlimit="10" d="  M39.2,24H10.8c-1,0-1.8,1.8-1.8,4s0.8,4,1.8,4h28.5c1,0,1.8-1.8,1.8-4S40.2,24,39.2,24z"/>
<polyline fill="none" stroke="#ffc400" stroke-width="2" stroke-linecap="round" stroke-miterlimit="10" points="12,32 12,41 38,41   38,32 "/>
<polyline fill="none" stroke="#ffc400" stroke-width="2" stroke-linecap="round" stroke-miterlimit="10" points="16,32 16,37 34,37   34,32 "/>
<line fill="none" stroke="#ffc400" stroke-width="2" stroke-linecap="round" stroke-linejoin="round" stroke-miterlimit="10" x1="25" y1="46.7" x2="25" y2="41"/>
<circle fill="none" stroke="#ffc400" stroke-width="2" stroke-linecap="round" stroke-linejoin="round" stroke-miterlimit="10" cx="25" cy="6" r="5"/>
<path fill="none" stroke="#ffc400" stroke-width="2" stroke-linecap="round" stroke-linejoin="round" stroke-miterlimit="10" d="  M39,24l-3.3-6.7c-1-2-3.1-3.3-5.4-3.3h-1.7h-7.2h-1.7c-2.3,0-4.4,1.3-5.4,3.3L11,24"/>
<line fill="none" stroke="#ffc400" stroke-width="2" stroke-linecap="round" stroke-linejoin="round" stroke-miterlimit="10" x1="16.5" y1="24" x2="18" y2="21"/>
<line fill="none" stroke="#ffc400" stroke-width="2" stroke-linecap="round" stroke-linejoin="round" stroke-miterlimit="10" x1="33.5" y1="24" x2="32" y2="21"/>
<path fill="none" stroke="#ffc400" stroke-width="2" stroke-linecap="round" stroke-linejoin="round" stroke-miterlimit="10" d="  M25,46.5c0,1.4-1.1,2.5-2.5,2.5S20,47.9,20,46.5V41"/>
<path fill="none" stroke="#ffc400" stroke-width="2" stroke-linecap="round" stroke-linejoin="round" stroke-miterlimit="10" d="  M25,46.5c0,1.4,1.1,2.5,2.5,2.5s2.5-1.1,2.5-2.5V41"/>
</svg>
