<?xml version="1.0" encoding="utf-8"?>
<!-- Generator: Adobe Illustrator 17.0.0, SVG Export Plug-In . SVG Version: 6.00 Build 0)  -->
<!DOCTYPE svg PUBLIC "-//W3C//DTD SVG 1.1//EN" "http://www.w3.org/Graphics/SVG/1.1/DTD/svg11.dtd">
<svg xmlns="http://www.w3.org/2000/svg" xmlns:xlink="http://www.w3.org/1999/xlink" version="1.1" id="Layer_1" x="0px" y="0px" width="50px" height="50px" viewBox="0 0 50 50" enable-background="new 0 0 50 50" xml:space="preserve" fill="#ffc400">

<path d="M43,42c0,1.104-0.895,2-2,2s-2-0.896-2-2s0.895-2,2-2S43,40.896,43,42z" fill="#ffc400"/>
<path fill="none" stroke="#ffc400" stroke-width="2" stroke-linecap="round" stroke-linejoin="round" stroke-miterlimit="10" d="  M49,48c0,0.552-0.448,1-1,1H2c-0.552,0-1-0.448-1-1V36c0-0.552,0.448-1,1-1h46c0.552,0,1,0.448,1,1V48z"/>
<path fill="none" stroke="#ffc400" stroke-width="2" stroke-linecap="round" stroke-linejoin="round" stroke-miterlimit="10" d="  M1.094,35.578L6.791,1.759C6.862,1.338,7.256,1,7.672,1h34.655c0.416,0,0.811,0.338,0.882,0.759l5.649,33.742"/>
<line fill="none" stroke="#ffc400" stroke-width="2" stroke-miterlimit="10" x1="7" y1="44" x2="34" y2="44"/>
<line fill="none" stroke="#ffc400" stroke-width="2" stroke-miterlimit="10" x1="8" y1="40" x2="8" y2="44"/>
<line fill="none" stroke="#ffc400" stroke-width="2" stroke-miterlimit="10" x1="13" y1="40" x2="13" y2="44"/>
<line fill="none" stroke="#ffc400" stroke-width="2" stroke-miterlimit="10" x1="18" y1="40" x2="18" y2="44"/>
<line fill="none" stroke="#ffc400" stroke-width="2" stroke-miterlimit="10" x1="23" y1="40" x2="23" y2="44"/>
<line fill="none" stroke="#ffc400" stroke-width="2" stroke-miterlimit="10" x1="28" y1="40" x2="28" y2="44"/>
<line fill="none" stroke="#ffc400" stroke-width="2" stroke-miterlimit="10" x1="33" y1="40" x2="33" y2="44"/>
</svg>
