<?xml version="1.0" encoding="utf-8"?>
<!-- Generator: Adobe Illustrator 18.1.1, SVG Export Plug-In . SVG Version: 6.00 Build 0)  -->
<svg xmlns="http://www.w3.org/2000/svg" xmlns:xlink="http://www.w3.org/1999/xlink" version="1.1" id="Layer_1" x="0px" y="0px" viewBox="0 0 50 50" enable-background="new 0 0 50 50" xml:space="preserve" fill="#ffc400">
<path fill="none" stroke="#ffc400" stroke-width="2" stroke-linecap="round" stroke-linejoin="round" stroke-miterlimit="10" d="  M40,48c0,0.6-0.4,1-1,1H11c-0.6,0-1-0.4-1-1V5c0-0.6,0.4-1,1-1h28c0.6,0,1,0.4,1,1V48z"/>
<path fill="none" stroke="#ffc400" stroke-width="2" stroke-linecap="round" stroke-linejoin="round" stroke-miterlimit="10" d="  M10.2,4.4l2.1-2.6C12.8,1.3,13.3,1,14,1h22.1c0.6,0,1.2,0.3,1.5,0.7l2,2.4"/>
<path d="M27,41c0,1.1-0.9,2-2,2s-2-0.9-2-2s0.9-2,2-2S27,39.9,27,41z" fill="#ffc400"/>
<path d="M27,34c0,1.1-0.9,2-2,2s-2-0.9-2-2s0.9-2,2-2S27,32.9,27,34z" fill="#ffc400"/>
<path fill="none" stroke="#ffc400" stroke-width="2" stroke-linecap="round" stroke-linejoin="round" stroke-miterlimit="10" d="  M35,16c0,0.6-0.4,1-1,1H16c-0.6,0-1-0.4-1-1v-5c0-0.6,0.4-1,1-1h18c0.6,0,1,0.4,1,1V16z"/>
<path fill="none" stroke="#ffc400" stroke-width="2" stroke-linecap="round" stroke-linejoin="round" stroke-miterlimit="10" d="  M35,23c0,0.6-0.4,1-1,1H16c-0.6,0-1-0.4-1-1v-5c0-0.6,0.4-1,1-1h18c0.6,0,1,0.4,1,1V23z"/>
</svg>
