<?xml version="1.0" encoding="utf-8"?>
<!-- Generator: Adobe Illustrator 18.1.1, SVG Export Plug-In . SVG Version: 6.00 Build 0)  -->
<svg xmlns="http://www.w3.org/2000/svg" xmlns:xlink="http://www.w3.org/1999/xlink" version="1.1" id="Layer_1" x="0px" y="0px" viewBox="0 0 50 50" enable-background="new 0 0 50 50" xml:space="preserve" fill="#ffc400">
<path fill="none" stroke="#ffc400" stroke-width="2" stroke-linecap="round" stroke-linejoin="round" stroke-miterlimit="10" d="  M21.4,41.6c1.1,0.2,2.3,0.4,3.5,0.4c9.4,0,17-7.6,17-17c0-9.4-7.6-17-17-17c-1.2,0-2.4,0.1-3.5,0.4"/>
<path fill="none" stroke="#ffc400" stroke-width="2" stroke-linecap="round" stroke-linejoin="round" stroke-miterlimit="10" d="  M28.4,41.6c1.1,0.2,2.3,0.4,3.5,0.4c9.4,0,17-7.6,17-17c0-9.4-7.6-17-17-17c-1.2,0-2.4,0.1-3.5,0.4"/>
<g fill="#ffc400">
	<path fill="none" stroke="#ffc400" stroke-width="2" stroke-linecap="round" stroke-linejoin="round" stroke-miterlimit="10" d="   M17.9,8c-9.4,0-17,7.6-17,17s7.6,17,17,17c9.4,0,17-7.6,17-17S27.3,8,17.9,8z"/>
</g>
<g fill="#ffc400">
	<path d="M17,33.5V21.3h-4.4v-1.6c0.6,0,1.1,0,1.7-0.1c0.5-0.1,1-0.3,1.5-0.5c0.4-0.2,0.8-0.6,1.1-1c0.3-0.4,0.5-0.9,0.6-1.6H19v17   H17z" fill="#ffc400"/>
</g>
</svg>
