<?xml version="1.0" encoding="utf-8"?>
<!-- Generator: Adobe Illustrator 18.1.0, SVG Export Plug-In . SVG Version: 6.00 Build 0)  -->
<svg xmlns="http://www.w3.org/2000/svg" xmlns:xlink="http://www.w3.org/1999/xlink" version="1.1" id="Layer_1" x="0px" y="0px" viewBox="0 0 50 50" enable-background="new 0 0 50 50" xml:space="preserve" fill="#ffc400">
<path fill="none" stroke="#ffc400" stroke-width="2" stroke-miterlimit="10" d="M46,26V16c0-4.4-3.6-8-8-8H28"/>
<polyline fill="none" stroke="#ffc400" stroke-width="2" stroke-linecap="round" stroke-miterlimit="10" points="34,1 27,8 34,15   "/>
<path fill="none" stroke="#ffc400" stroke-width="2" stroke-miterlimit="10" d="M30.2,35.3c0,0,4-2.3,5.1-2.9  c1.1-0.6,2.2-0.7,2.8-0.3c1,0.6,9.5,6.2,10.2,6.7c0.7,0.5,1.1,1.9,0.1,3.3c-1,1.4-5.5,6.9-7.4,6.9c-1.9-0.1-9.8-0.2-24.8-15.2  C1.2,18.8,1.1,10.9,1,9C0.9,7.1,6.5,2.6,7.9,1.6c1.4-1,2.8-0.6,3.3,0.1c0.6,0.8,6.1,9.2,6.7,10.2c0.4,0.7,0.3,1.8-0.3,2.8  c-0.6,1.1-2.9,5.1-2.9,5.1s1.6,2.8,7.2,8.3C27.4,33.6,30.2,35.3,30.2,35.3z"/>
</svg>
