<?xml version="1.0" encoding="utf-8"?>
<!-- Generator: Adobe Illustrator 18.1.1, SVG Export Plug-In . SVG Version: 6.00 Build 0)  -->
<svg xmlns="http://www.w3.org/2000/svg" xmlns:xlink="http://www.w3.org/1999/xlink" version="1.1" id="Layer_1" x="0px" y="0px" viewBox="0 0 50 50" enable-background="new 0 0 50 50" xml:space="preserve" fill="#ffc400">
<circle fill="none" stroke="#ffc400" stroke-width="2" stroke-linecap="round" stroke-miterlimit="10" cx="11" cy="16.5" r="10"/>
<circle cx="11" cy="16.5" r="1.6" fill="#ffc400"/>
<polyline fill="none" stroke="#ffc400" stroke-width="2" stroke-linecap="round" stroke-miterlimit="10" points="8,19.5 11,16.5   11,9.5 "/>
<g fill="#ffc400">
	<circle fill="none" stroke="#ffc400" stroke-width="2" stroke-miterlimit="10" cx="13" cy="38.5" r="5"/>
</g>
<g fill="#ffc400">
	<circle fill="none" stroke="#ffc400" stroke-width="2" stroke-miterlimit="10" cx="39" cy="38.5" r="5"/>
</g>
<path fill="none" stroke="#ffc400" stroke-width="2" stroke-miterlimit="10" d="M45,38.5h2c1,0,2-1,2-2c0,0,0-7.9,0-9.6  c0-1.7-1.4-3.7-1.4-3.7l-4.1-5.5c-0.9-1.1-2.1-2.2-3.5-2.2h-8c-1,0-2,1-2,2v19c0,1,1,2,2,2h2 M49,27.5c0,0-10,0-11,0s-2-1-2-2  c0-0.6,0-2.5,0-4c0-1.1,1-2,2-2s6.8,0,6.8,0"/>
<path fill="none" stroke="#ffc400" stroke-width="1.9974" stroke-miterlimit="10" d="M3,22.6v13.9c0,1,1,2,2,2h3"/>
<path fill="none" stroke="#ffc400" stroke-width="1.9974" stroke-miterlimit="10" d="M18,38.5h10.2c1,0,1.8-0.8,1.8-1.8V12.4  c0-1-0.8-1.9-1.8-1.9h-9.1"/>
</svg>
