<?xml version="1.0" encoding="utf-8"?>
<!-- Generator: Adobe Illustrator 17.0.0, SVG Export Plug-In . SVG Version: 6.00 Build 0)  -->
<!DOCTYPE svg PUBLIC "-//W3C//DTD SVG 1.1//EN" "http://www.w3.org/Graphics/SVG/1.1/DTD/svg11.dtd">
<svg xmlns="http://www.w3.org/2000/svg" xmlns:xlink="http://www.w3.org/1999/xlink" version="1.1" id="Layer_1" x="0px" y="0px" width="50px" height="50px" viewBox="0 0 50 50" enable-background="new 0 0 50 50" xml:space="preserve" fill="#ffc400">
<g fill="#ffc400">
	<path fill="none" stroke="#ffc400" stroke-width="2" stroke-linecap="round" stroke-miterlimit="10" d="M23,2.952   c-5.007,0-7,4.989-7,8.501c0,0.898-2-0.374-2,3.547c0,0,3.999,1,11.005,1S36,15,36,15c0-3.958-2-2.649-2-3.547   c0-3.515-2.034-8.501-7-8.501 M27,9V2.225C27,1.547,26.469,1,25.857,1h-1.715C23.531,1,23,1.547,23,2.225V9"/>
</g>

<path fill="none" stroke="#ffc400" stroke-width="2" stroke-linecap="round" stroke-miterlimit="10" d="M16.292,15.418  c0.137,1.127,0.322,1.93,0.633,3.129c-0.345,0.21-0.913,0.878-0.771,2.065c0.266,2.211,1.17,2.771,1.744,2.818  c0.22,2.062,1.58,4.504,2.312,4.888c0,1.473,0.055,2.598-0.091,4.21C18.367,37.239,6.546,35.916,6,45h38  c-0.545-9.084-12.315-7.761-14.067-12.472c-0.146-1.612-0.09-2.737-0.09-4.21c0.73-0.384,2.038-2.826,2.259-4.888  c0.574-0.047,1.479-0.607,1.744-2.818c0.143-1.187-0.425-1.855-0.771-2.065c0.265-0.797,0.554-1.717,0.767-3.148"/>
</svg>
