<?xml version="1.0" encoding="utf-8"?>
<!-- Generated by IcoMoon.io -->
<!DOCTYPE svg PUBLIC "-//W3C//DTD SVG 1.1//EN" "http://www.w3.org/Graphics/SVG/1.1/DTD/svg11.dtd">
<svg version="1.1" xmlns="http://www.w3.org/2000/svg" xmlns:xlink="http://www.w3.org/1999/xlink" width="20" height="20" viewBox="0 0 20 20">
<path fill="#444444" d="M10.004 1.001c3.688 0 6.688 3.002 6.688 6.692s-3.002 6.691-6.691 6.692c-3.69-0.001-6.692-3.002-6.692-6.692s3.002-6.692 6.693-6.692h0.002zM10.003 0.145h-0.002c0 0-0.001 0-0.002 0-4.168 0-7.548 3.38-7.548 7.548 0 4.167 3.382 7.548 7.548 7.548 4.166-0.001 7.548-3.382 7.548-7.548 0.001-4.17-3.38-7.548-7.545-7.548v0z"></path>
<path fill="#444444" d="M10.771 6.202c0.675-2.501-0.753-4.099-2.672-3.916-0.905 0.088-1.812 1.246-1.255 2.3 0.522 0.988 1.615 0.896 1.95 2.022 0.312-0.428 0.932-0.908 1.976-0.406z"></path>
<path fill="#444444" d="M8.325 7.769c-2.504 0.665-3.175 2.702-2.056 4.272 0.528 0.739 1.985 0.946 2.618-0.064 0.594-0.945-0.032-1.846 0.776-2.699-0.525-0.057-1.252-0.353-1.338-1.508z"></path>
<path fill="#444444" d="M10.905 9.105c1.828 1.835 3.926 1.398 4.727-0.355 0.376-0.827-0.173-2.193-1.365-2.236-1.115-0.042-1.583 0.95-2.725 0.678 0.213 0.482 0.321 1.261-0.637 1.914z"></path>
<path fill="#444444" d="M10.997 7.692c0 0.551-0.446 0.997-0.997 0.997s-0.997-0.446-0.997-0.997c0-0.551 0.446-0.997 0.997-0.997s0.997 0.446 0.997 0.997z"></path>
<path fill="#444444" d="M11.538 16.154c0 0-0.292 0.241-1.538 0.241s-1.538-0.241-1.538-0.241c0 1.539-3.077 1.803-3.077 3.077v0.769h9.231v-0.769c0-1.274-3.077-1.538-3.077-3.077z"></path>
</svg>
