<?xml version="1.0" encoding="utf-8"?>
<!-- Generated by IcoMoon.io -->
<!DOCTYPE svg PUBLIC "-//W3C//DTD SVG 1.1//EN" "http://www.w3.org/Graphics/SVG/1.1/DTD/svg11.dtd">
<svg version="1.1" xmlns="http://www.w3.org/2000/svg" xmlns:xlink="http://www.w3.org/1999/xlink" width="20" height="20" viewBox="0 0 20 20">
<path fill="#fff" d="M5.308 2.077c-0.615 0-3 1.385-3 5.615 0 3.692 2.077 4.923 2.077 6.231 0 1.923-2 3.462-2 3.462s4.077-1.462 4.077-4.846c-2.231-0.231-2.769-3.154-2.769-4.308 0-2.923 1.769-4.769 1.769-4.769-0.769 3.462 3.846 2.462 3.846 7.538 0 1.923-0.692 3.615-0.692 3.615s0.769-0.231 1.308-0.846c-0.769 2.077-3.385 5.308-6 5.769 1.923 1.231 13.769 0.385 13.769-11.154 0-5.692-4.769-8.385-8.692-8.385-1.692 0-3.462 0.692-3.462 1.154 3 0 5.231 2.385 5.231 3.462-0.154-0.308-2.769-2.538-5.462-2.538z"></path>
</svg>
