<?xml version="1.0" encoding="utf-8"?>
<!-- Generated by IcoMoon.io -->
<!DOCTYPE svg PUBLIC "-//W3C//DTD SVG 1.1//EN" "http://www.w3.org/Graphics/SVG/1.1/DTD/svg11.dtd">
<svg version="1.1" xmlns="http://www.w3.org/2000/svg" xmlns:xlink="http://www.w3.org/1999/xlink" width="20" height="20" viewBox="0 0 20 20">
<path fill="#fff" d="M2.965 19.755c-0.3 0.299-0.788 0.299-1.088 0l-1.632-1.632c-0.3-0.301-0.299-0.788 0-1.088l8.224-8.224 2.72 2.72-8.224 8.223z"></path>
<path fill="#fff" d="M13.143 4.135c0.301-0.299 0.788-0.299 1.089 0l1.632 1.632c0.299 0.301 0.299 0.788-0.001 1.088l-3.65 3.651-2.719-2.72 3.649-3.651z"></path>
<path fill="#fff" d="M19.722 9.629l-1.509-1.508c0 0-0.222-0.103-0.33-0.048-0.238 0.122-0.925 0.205-1.265-0.135-0.495-0.495-1.016-1.015-1.016-1.015l-2.062 2.062c0 0 0.477 0.475 1.015 1.015 0.337 0.337 0.285 0.985 0.165 1.222-0.072 0.143 0.002 0.389 0.002 0.389l1.509 1.508c0.3 0.3 0.788 0.3 1.088 0.001l2.401-2.402c0.299-0.3 0.299-0.788 0.001-1.088z"></path>
<path fill="#fff" d="M15.864 5.772c0.299 0.3 0.299 0.788 0 1.088l-2.401 2.401c-0.301 0.3-0.788 0.299-1.088 0 0 0-2.735-1.641-2.134-2.23 0.589-0.577 0.489-1.575-1.17-3.313-2.019-2.115-5.128-2.888-5.128-2.888s6.997 0.018 8.353 1.375c0.399 0.398 3.568 3.566 3.568 3.566z"></path>
</svg>
