<?xml version="1.0" encoding="utf-8"?>
<!-- Generated by IcoMoon.io -->
<!DOCTYPE svg PUBLIC "-//W3C//DTD SVG 1.1//EN" "http://www.w3.org/Graphics/SVG/1.1/DTD/svg11.dtd">
<svg version="1.1" xmlns="http://www.w3.org/2000/svg" xmlns:xlink="http://www.w3.org/1999/xlink" width="20" height="20" viewBox="0 0 20 20">
<path fill="#444444" d="M4.615 16.154c-0.424 0-0.769-0.345-0.769-0.769v-11.538c0-0.424 0.345-0.769 0.769-0.769h1.538c0.424 0 0.769 0.345 0.769 0.769v11.538c0 0.424-0.345 0.769-0.769 0.769h-1.538z"></path>
<path fill="#444444" d="M2.308 14.615c-0.424 0-0.769-0.345-0.769-0.769v-8.462c0-0.424 0.345-0.769 0.769-0.769h0.769v10h-0.769z"></path>
<path fill="#444444" d="M13.846 16.154c-0.424 0-0.769-0.345-0.769-0.769v-11.538c0-0.424 0.345-0.769 0.769-0.769h1.538c0.424 0 0.769 0.345 0.769 0.769v11.538c0 0.424-0.345 0.769-0.769 0.769h-1.538z"></path>
<path fill="#444444" d="M16.923 14.615v-10h0.769c0.424 0 0.769 0.345 0.769 0.769v8.462c0 0.424-0.345 0.769-0.769 0.769h-0.769z"></path>
<path fill="#444444" d="M19.231 8.462h-1.538v2.308h1.538c0.424 0 0.769-0.345 0.769-0.769v-0.769c0-0.424-0.345-0.769-0.769-0.769z"></path>
<path fill="#444444" d="M2.308 8.462h-1.538c-0.424 0-0.769 0.345-0.769 0.769v0.769c0 0.424 0.345 0.769 0.769 0.769h1.538v-2.308z"></path>
<path fill="#444444" d="M6.154 8.462h7.692v2.308h-7.692v-2.308z"></path>
</svg>
