<?xml version="1.0" encoding="utf-8"?>
<!-- Generated by IcoMoon.io -->
<!DOCTYPE svg PUBLIC "-//W3C//DTD SVG 1.1//EN" "http://www.w3.org/Graphics/SVG/1.1/DTD/svg11.dtd">
<svg version="1.1" xmlns="http://www.w3.org/2000/svg" xmlns:xlink="http://www.w3.org/1999/xlink" width="20" height="20" viewBox="0 0 20 20">
<path fill="#444444" d="M17.625 8.078c-0.258-0.115-2.67-1.188-2.928-1.303-1.213-0.54-2.634 0.006-3.173 1.218l7.32 3.258c0.54-1.213-0.006-2.634-1.218-3.173z"></path>
<path fill="#444444" d="M19.395 0.16c-0.405-0.18-0.835-0.134-0.966 0.113l-3.024 5.671 2.365 1.052 2.188-6.042c0.095-0.263-0.158-0.613-0.563-0.793z"></path>
<path fill="#444444" d="M6.064 15.887c0 0 1.822-0.076 2.96-1.265-0.911 1.67-1.695 2.1-1.695 2.1l-1.265-0.835z"></path>
<path fill="#444444" d="M9.212 17.303c0 0 1.212 0.478 4.050-2.136-1.021 2.328-1.977 3.125-1.977 3.125l-2.073-0.989z"></path>
<path fill="#444444" d="M2.308 4.231c0 0.637-0.517 1.154-1.154 1.154s-1.154-0.517-1.154-1.154c0-0.637 0.517-1.154 1.154-1.154s1.154 0.517 1.154 1.154z"></path>
<path fill="#444444" d="M5.385 4.615c0 0.425-0.344 0.769-0.769 0.769s-0.769-0.344-0.769-0.769c0-0.425 0.344-0.769 0.769-0.769s0.769 0.344 0.769 0.769z"></path>
<path fill="#444444" d="M6.154 8.846c0 1.062-0.861 1.923-1.923 1.923s-1.923-0.861-1.923-1.923c0-1.062 0.861-1.923 1.923-1.923s1.923 0.861 1.923 1.923z"></path>
</svg>
