<?xml version="1.0" encoding="utf-8"?>
<!-- Generated by IcoMoon.io -->
<!DOCTYPE svg PUBLIC "-//W3C//DTD SVG 1.1//EN" "http://www.w3.org/Graphics/SVG/1.1/DTD/svg11.dtd">
<svg version="1.1" xmlns="http://www.w3.org/2000/svg" xmlns:xlink="http://www.w3.org/1999/xlink" width="20" height="20" viewBox="0 0 20 20">
<path fill="#fff" d="M0 18.462h20v0.769c0 0 0 0.769-0.769 0.769h-18.462c-0.424 0-0.769-0.345-0.769-0.769v-0.769z"></path>
<path fill="#fff" d="M16.154 1.538h-12.308c-1.274 0-2.308 1.034-2.308 2.308v7.692c0 1.274 1.034 2.308 2.308 2.308h12.308c1.274 0 2.308-1.034 2.308-2.308v-7.692c0-1.274-1.034-2.308-2.308-2.308zM3.077 11.538v-7.692c0-0.424 0.345-0.769 0.769-0.769h12.308c0.424 0 0.769 0.345 0.769 0.769v7.692c0 0.424-0.345 0.769-0.769 0.769h-12.308c-0.424 0-0.769-0.345-0.769-0.769z"></path>
<path fill="#fff" d="M18.462 13.703c-0.138-0.349-0.518-0.625-0.851-0.625h-15.221c-0.607 0.001-0.852 0.625-0.852 0.625l-1.538 3.989h7.117l0.326-0.853c0 0 0.248-0.685 1.017-0.685h3.077c0.421 0 0.873 0.288 1.034 0.685l0.311 0.853h7.118l-1.538-3.989zM3.846 15.385l0.769-1.538h10.769l0.769 1.538h-12.308z"></path>
<path fill="#fff" d="M11.538 13.077h-0.769l0.519 3.077h0.769z"></path>
<path fill="#fff" d="M9.231 13.077h-0.769l-0.385 3.077h0.769z"></path>
<path fill="#fff" d="M6.923 13.077h-0.769l-0.769 3.077h0.769z"></path>
<path fill="#fff" d="M13.846 13.077h-0.769l0.769 3.077h0.769z"></path>
</svg>
