<?xml version="1.0" encoding="utf-8"?>
<!-- Generated by IcoMoon.io -->
<!DOCTYPE svg PUBLIC "-//W3C//DTD SVG 1.1//EN" "http://www.w3.org/Graphics/SVG/1.1/DTD/svg11.dtd">
<svg version="1.1" xmlns="http://www.w3.org/2000/svg" xmlns:xlink="http://www.w3.org/1999/xlink" width="20" height="20" viewBox="0 0 20 20">
<path fill="#444444" d="M0 19.231c0 0.424 0.345 0.769 0.769 0.769h18.462c0.424 0 0.769-0.345 0.769-0.769v-0.769c0-0.424-0.345-0.769-0.769-0.769h-17.692c-0.424 0-1.538 1.538-1.538 1.538z"></path>
<path fill="#444444" d="M13.846 10h-3.077c-0.424 0-0.769 0.345-0.769 0.769v0.989h4.615v-0.989c0-0.424-0.345-0.769-0.769-0.769z"></path>
<path fill="#444444" d="M14.231 5.385h-7.692c-0.878 0-0.175 2.891 3.077 2.891s3.415-0.583 4.615-0.583 3.105 0.425 3.21 3.21c0.020 0.528 2.559 2.175 2.559 2.175s0-0.517 0-1.154c0-4.492-2.991-6.538-5.769-6.538z"></path>
<path fill="#444444" d="M15.625 15.385c0 0.558-0.452 1.010-1.010 1.010s-1.010-0.452-1.010-1.010c0-0.558 0.452-1.010 1.010-1.010s1.010 0.452 1.010 1.010z"></path>
<path fill="#444444" d="M12.548 15.385c0 0.558-0.452 1.010-1.010 1.010s-1.010-0.452-1.010-1.010c0-0.558 0.452-1.010 1.010-1.010s1.010 0.452 1.010 1.010z"></path>
<path fill="#444444" d="M9.472 15.385c0 0.558-0.452 1.010-1.010 1.010s-1.010-0.452-1.010-1.010c0-0.558 0.452-1.010 1.010-1.010s1.010 0.452 1.010 1.010z"></path>
<path fill="#444444" d="M17.692 11.538h2.308v6.154h-2.308v-6.154z"></path>
</svg>
