<?xml version="1.0" encoding="utf-8"?>
<!-- Generated by IcoMoon.io -->
<!DOCTYPE svg PUBLIC "-//W3C//DTD SVG 1.1//EN" "http://www.w3.org/Graphics/SVG/1.1/DTD/svg11.dtd">
<svg version="1.1" xmlns="http://www.w3.org/2000/svg" xmlns:xlink="http://www.w3.org/1999/xlink" width="20" height="20" viewBox="0 0 20 20">
<path fill="#fff" d="M14.615 0h-8.462c-1.275 0-2.308 1.034-2.308 2.308v15.385c0 1.274 1.033 2.308 2.308 2.308h8.462c1.275 0 2.308-1.034 2.308-2.308v-15.385c0-1.274-1.033-2.308-2.308-2.308zM9.615 0.769h1.538c0.212 0 0.385 0.172 0.385 0.385s-0.172 0.385-0.385 0.385h-1.538c-0.212 0-0.385-0.172-0.385-0.385s0.172-0.385 0.385-0.385zM10.385 19.060c-0.543 0-0.983-0.44-0.983-0.983s0.44-0.983 0.983-0.983 0.983 0.44 0.983 0.983-0.44 0.983-0.983 0.983zM15.385 15.769c0 0.212-0.172 0.385-0.385 0.385h-9.231c-0.212 0-0.385-0.172-0.385-0.385v-13.077c0-0.212 0.172-0.385 0.385-0.385h9.231c0.212 0 0.385 0.172 0.385 0.385v13.077z"></path>
</svg>
