<?xml version="1.0" encoding="utf-8"?>
<!-- Generator: Adobe Illustrator 17.0.0, SVG Export Plug-In . SVG Version: 6.00 Build 0)  -->
<!DOCTYPE svg PUBLIC "-//W3C//DTD SVG 1.1//EN" "http://www.w3.org/Graphics/SVG/1.1/DTD/svg11.dtd">
<svg xmlns="http://www.w3.org/2000/svg" xmlns:xlink="http://www.w3.org/1999/xlink" version="1.1" id="Layer_1" x="0px" y="0px" width="50px" height="50px" viewBox="0 0 50 50" enable-background="new 0 0 50 50" xml:space="preserve" fill="#999">

<path fill="none" stroke="#999" stroke-width="2" stroke-miterlimit="10" d="M6.365,40.437C10.766,37.729,17.478,36,25,36  c7.417,0,14.049,1.682,18.451,4.325"/>
<path fill="none" stroke="#999" stroke-width="2" stroke-miterlimit="10" d="M43.635,9.563C39.234,12.271,32.521,14,25,14  c-7.418,0-14.049-1.682-18.451-4.325"/>
<line fill="none" stroke="#999" stroke-width="2" stroke-miterlimit="10" x1="25" y1="32" x2="25" y2="49"/>
<line fill="none" stroke="#999" stroke-width="2" stroke-miterlimit="10" x1="25" y1="1" x2="25" y2="18"/>
<g fill="#999">
	<path fill="none" stroke="#999" stroke-width="2" stroke-linecap="round" stroke-miterlimit="10" d="M47.96,18   C44.964,8.16,35.82,1,25,1C14.18,1,5.036,8.16,2.04,18"/>
	<path fill="none" stroke="#999" stroke-width="2" stroke-linecap="round" stroke-miterlimit="10" d="M2.04,32   C5.036,41.84,14.18,49,25,49c10.82,0,19.964-7.16,22.96-17"/>
</g>
<g fill="#999">
	<path fill="none" stroke="#999" stroke-width="2" stroke-linecap="round" stroke-miterlimit="10" d="M13.52,32   c1.498,9.84,6.07,17,11.48,17c5.408,0,9.981-7.16,11.48-17"/>
	<path fill="none" stroke="#999" stroke-width="2" stroke-linecap="round" stroke-miterlimit="10" d="M36.48,18   C34.981,8.16,30.408,1,25,1c-5.41,0-9.982,7.16-11.48,17"/>
</g>
<g fill="#999">
	<path d="M1,20.971h1.894l1.923,6.523h0.03l2.147-6.523h1.908l2.087,6.523h0.03L13,20.971h1.893L11.957,29.5h-1.893l-2.132-6.522   h-0.03L5.726,29.5H3.803L1,20.971z" fill="#999"/>
	<path d="M18.054,20.971h1.894l1.923,6.523h0.03l2.147-6.523h1.908l2.087,6.523h0.03l1.982-6.523h1.893L29.011,29.5h-1.893   l-2.132-6.522h-0.03L22.779,29.5h-1.923L18.054,20.971z" fill="#999"/>
	<path d="M35.107,20.971H37l1.923,6.523h0.03l2.147-6.523h1.908l2.087,6.523h0.03l1.982-6.523H49L46.064,29.5h-1.893l-2.132-6.522   h-0.03L39.832,29.5H37.91L35.107,20.971z" fill="#999"/>
</g>
</svg>
