<?xml version="1.0" encoding="utf-8"?>
<!-- Generated by IcoMoon.io -->
<!DOCTYPE svg PUBLIC "-//W3C//DTD SVG 1.1//EN" "http://www.w3.org/Graphics/SVG/1.1/DTD/svg11.dtd">
<svg version="1.1" xmlns="http://www.w3.org/2000/svg" xmlns:xlink="http://www.w3.org/1999/xlink" width="20" height="20" viewBox="0 0 20 20">
<path fill="#444444" d="M12.563 0.146l-5.117 5.116 7.292 7.292 5.115-5.116-7.29-7.292zM14.308 10.032c-0.304-0.304 0.488-1.538 0.016-2.009s-1.538 0.455-1.959 0.034c-0.246-0.247-0.276-0.625-0.036-1.125s0.736-1.498 0.465-1.768c-0.272-0.271-1.018 0.132-1.568 0.505-0.348 0.237-1.172 0.672-1.533 0.311-0.285-0.285-0.288-0.849 0.243-1.381 0.003-0.003 2.627-2.628 2.627-2.628l5.468 5.468c0 0-1.458 1.459-2.028 2.028-0.81 0.811-1.392 0.869-1.695 0.565z"></path>
<path fill="#444444" d="M7.446 6.35l6.204 6.205-1.43 1.429-6.204-6.204 1.43-1.43zM7.446 5.262l-2.518 2.518 7.292 7.292 2.518-2.517-7.292-7.292z"></path>
<path fill="#444444" d="M5.728 12.225c-1.509 1.51-3.045 1.447-3.985 2.388-1.51 1.51-2.266 3.899-1.262 4.905 1.007 1.007 3.396 0.249 4.907-1.259 0.939-0.942 1.447-3.045 2.386-3.985 0.941-0.941 4.445 0.798 4.445 0.798l-7.292-7.292c0.001-0.001 1.598 3.646 0.8 4.445zM3.025 16.974c0.397 0.397 0.397 1.040 0 1.436s-1.039 0.396-1.435 0c-0.397-0.397-0.397-1.040 0-1.436s1.038-0.396 1.435 0z"></path>
</svg>
