<?xml version="1.0" encoding="utf-8"?>
<!-- Generated by IcoMoon.io -->
<!DOCTYPE svg PUBLIC "-//W3C//DTD SVG 1.1//EN" "http://www.w3.org/Graphics/SVG/1.1/DTD/svg11.dtd">
<svg version="1.1" xmlns="http://www.w3.org/2000/svg" xmlns:xlink="http://www.w3.org/1999/xlink" width="20" height="20" viewBox="0 0 20 20">
<path fill="#fff" d="M0.615 12.308c0.538 0.154 1 0.538 1.154 0.769 0.231-0.077 0.615-0.154 1 0.077 0.308 0.154 0.462 0.385 0.538 0.692 0.308 0 0.615 0 0.923 0.077 0.462 0.077 0.769 0.385 1 0.769 0.385-0.231 0.846-0.385 1.231-0.308 0.462 0.077 0.846 0.231 1.154 0.538 0.231-0.308 0.538-0.462 0.923-0.615 0.538-0.154 1.077-0.154 1.615 0 0.077-0.154 0.231-0.308 0.308-0.462 0.385-0.462 0.923-0.692 1.462-0.769 0-0.308 0.077-0.692 0.231-1 0.077-0.231 0.308-0.462 0.462-0.692-0.231-0.385-0.308-0.846-0.308-1.231 0-1.692 1.692-3.154 3.846-3.231 0.846 0 0.538 0.538 1.154 0.846 0.231 0.154-2.231 1.462-2.077 1.615 2.077 0.538 4.154-1.308 4.154-1.308 0.308 0.462 0.538 1.231 0.538 1.923 0 2.538-2.538 3.154-4.615 3.154 0.615 0.385 2.231 0.769 3.769 0.231-0.308 4.385-5 2.923-5.692 2.538 0.231 0.538 2.231 1.538 3.308 1.615-1.385 2.769-5 1.769-6.231 0 0.077 0.769 0.769 2 1.769 2.231-0.538 0.077-1.308 0.231-2.231 0.231-2.077 0-3-1.769-3.231-2.769-0.385 0.846 0 1.923 0.615 2.538-1.769 0.385-3.615-1.462-3.385-3.308-0.308 0.231-0.769 1.308-0.308 2.154-0.846-0.154-2.769-1.692-1.615-3.769-0.538 0.308-0.846 0.692-1 1.538-0.538-0.308-1.077-1.615-0.385-2.769-0.308 0.077-0.615 0.538-0.615 0.538s-0.077-0.231-0.077-0.615c0-0.385 0.231-0.923 0.615-1.231z"></path>
<path fill="#fff" d="M11.077 5.692c0 2 1.846 3.615 4.077 3.538s4.077-1.769 4.077-3.769c0-2-1.846-3.615-4.077-3.538-2.231 0-4.077 1.692-4.077 3.769zM12.462 4.077c0.308-0.615 1-0.923 1.538-0.692 0.538 0.308 0.615 1 0.308 1.615s-1 0.923-1.538 0.692c-0.538-0.231-0.615-1-0.308-1.615zM17 3.769c-0.385-0.538-0.308-1 0-1 0.385 0 0.923 0.462 1.308 1s0.308 1 0 1c-0.385 0-0.923-0.462-1.308-1z"></path>
<path fill="#fff" d="M12.154 2.154c-0.846 0.692-1.231 1.615-1.231 1.615s-0.615-1.923 0.692-3.308c0.077 0.462 0.308 1.231 0.538 1.692z"></path>
<path fill="#fff" d="M16.692 1.385c0.538 0 1.308 0.769 1.308 0.769s-0.308-1.615-1.615-2.154c0.077 0.385 0.308 1 0.308 1.385z"></path>
</svg>
