<?xml version="1.0" encoding="utf-8"?>
<!-- Generator: Adobe Illustrator 17.0.0, SVG Export Plug-In . SVG Version: 6.00 Build 0)  -->
<!DOCTYPE svg PUBLIC "-//W3C//DTD SVG 1.1//EN" "http://www.w3.org/Graphics/SVG/1.1/DTD/svg11.dtd">
<svg xmlns="http://www.w3.org/2000/svg" xmlns:xlink="http://www.w3.org/1999/xlink" version="1.1" id="Layer_1" x="0px" y="0px" width="50px" height="50px" viewBox="0 0 50 50" enable-background="new 0 0 50 50" xml:space="preserve" fill="#009688">
<polygon fill="none" stroke="#009688" stroke-width="2" stroke-linejoin="round" stroke-miterlimit="10" points="17,29 33,29 25,21   "/>
<polygon fill="none" stroke="#009688" stroke-width="2" stroke-linejoin="round" stroke-miterlimit="10" points="33,34 17,34 25,42   "/>

<path fill="none" stroke="#009688" stroke-width="2" stroke-linejoin="round" stroke-miterlimit="10" d="M8,5H2C1.448,5,1,5.448,1,6  v42c0,0.552,0.448,1,1,1h46c0.552,0,1-0.448,1-1V6c0-0.552-0.448-1-1-1h-8"/>
<line fill="none" stroke="#009688" stroke-width="2" stroke-linejoin="round" stroke-miterlimit="10" x1="34" y1="5" x2="14" y2="5"/>
<path fill="none" stroke="#009688" stroke-width="2" stroke-linejoin="round" stroke-miterlimit="10" d="M37,1c-0.552,0-1,0.448-1,1  v6c0,0.552,0.448,1,1,1h2c0.552,0,1-0.448,1-1V2c0-0.552-0.448-1-1-1H37z"/>
<path fill="none" stroke="#009688" stroke-width="2" stroke-linejoin="round" stroke-miterlimit="10" d="M11,1c-0.552,0-1,0.448-1,1  v6c0,0.552,0.448,1,1,1h2c0.552,0,1-0.448,1-1V2c0-0.552-0.448-1-1-1H11z"/>
<line fill="none" stroke="#009688" stroke-width="2" stroke-linejoin="round" stroke-miterlimit="10" x1="1" y1="15" x2="49" y2="15"/>
</svg>
